<svg width="100" height="100" viewBox="0 0 100 100" fill="none" xmlns="http://www.w3.org/2000/svg">
<path d="M50 0C22.4 0 0 22.4 0 50C0 77.6 22.4 100 50 100C77.6 100 100 77.6 100 50C100 22.4 77.6 0 50 0ZM31.65 43.3L44.15 18.3C44.8 17.05 46.1 16.25 47.5 16.25H52.5C53.9 16.25 55.2 17.05 55.85 18.3L68.35 43.3C69.3 45.15 68.55 47.4 66.65 48.35C66.1 48.6 65.55 48.75 65 48.75C63.65 48.75 62.3 48 61.65 46.7L50.2 23.75H49.85L38.4 46.7C37.5 48.55 35.25 49.3 33.35 48.4C31.45 47.45 30.7 45.2 31.65 43.3ZM76.95 68.2L51.95 83.2C51.35 83.55 50.7 83.75 50 83.75C49.3 83.75 48.65 83.55 48.05 83.2L23.05 68.2C21.35 67.2 20.75 65.05 21.6 63.3L26.6 53.3C27.55 51.45 29.8 50.7 31.65 51.6C33.5 52.55 34.25 54.8 33.35 56.65L29.9 63.55L50 75.6L70.1 63.55L66.65 56.65C65.7 54.8 66.45 52.55 68.35 51.6C70.2 50.7 72.45 51.4 73.4 53.3L78.4 63.3C79.25 65.05 78.6 67.2 76.95 68.2Z" fill="#2BCD31"/>
</svg>
