<svg width="120" height="120" viewBox="0 0 120 120" fill="none" xmlns="http://www.w3.org/2000/svg">
<path d="M58.25 11.7496L31.8 38.1996C30.8 39.1996 30.8 40.7496 31.8 41.7496L38.25 48.1996C39.25 49.1996 40.8 49.1996 41.8 48.1996L58.25 31.7496C59.25 30.7496 60.8 30.7496 61.8 31.7496L78.25 48.1996C79.25 49.1996 80.8 49.1996 81.8 48.1996L88.25 41.7496C89.25 40.7496 89.25 39.1996 88.25 38.1996L61.8 11.7496C60.8 10.7996 59.2 10.7996 58.25 11.7496Z" fill="#FF6C00"/>
<path d="M58.25 108.251L31.8 81.8008C30.8 80.8008 30.8 79.2508 31.8 78.2508L38.25 71.8008C39.25 70.8008 40.8 70.8008 41.8 71.8008L58.25 88.2508C59.25 89.2508 60.8 89.2508 61.8 88.2508L78.25 71.8008C79.25 70.8008 80.8 70.8008 81.8 71.8008L88.25 78.2508C89.25 79.2508 89.25 80.8008 88.25 81.8008L61.8 108.251C60.8 109.201 59.2 109.201 58.25 108.251Z" fill="#FF6C00"/>
<path d="M100.5 50.4996L108.2 58.1996C109.2 59.1996 109.2 60.7496 108.2 61.7496L100.5 69.4496C99.5001 70.4496 97.95 70.4496 96.95 69.4496L89.2501 61.7496C88.2501 60.7496 88.2501 59.1996 89.2501 58.1996L96.95 50.4996C97.95 49.5496 99.5501 49.5496 100.5 50.4996Z" fill="#FFC11C"/>
<path d="M23.0001 50.4996L30.7 58.1996C31.7 59.1996 31.7 60.7496 30.7 61.7496L23.0001 69.4496C22.0001 70.4496 20.45 70.4496 19.45 69.4496L11.7501 61.7496C10.7501 60.7496 10.7501 59.1996 11.7501 58.1996L19.45 50.4996C20.45 49.5496 22.0501 49.5496 23.0001 50.4996Z" fill="#FFC11C"/>
<path d="M61.7501 49.4004L70.6 58.2504C71.6 59.2504 71.6 60.8004 70.6 61.8004L61.7501 70.6504C60.7501 71.6504 59.2 71.6504 58.2 70.6504L49.35 61.8004C48.35 60.8004 48.35 59.2504 49.35 58.2504L58.2 49.4004C59.2 48.4004 60.8001 48.4004 61.7501 49.4004Z" fill="#FFC11C"/>
</svg>
