<svg width="72" height="72" viewBox="0 0 72 72" fill="none" xmlns="http://www.w3.org/2000/svg">
<rect width="72" height="72" rx="10" fill="#CCD7E0"/>
<g opacity="0.2">
<path opacity="0.4" d="M47.8167 36.9833C47.55 36.9833 47.2833 36.9 47.05 36.7167C40.3333 31.5333 31.65 31.5333 24.9333 36.7167C24.3833 37.1333 23.6 37.0333 23.1833 36.5C22.7667 35.95 22.8667 35.1667 23.4 34.75C31.05 28.8333 40.9333 28.8333 48.5667 34.75C49.1167 35.1667 49.2167 35.95 48.7833 36.5C48.5667 36.8167 48.2 36.9833 47.8167 36.9833Z" fill="#003566"/>
<path d="M52.6667 31.1833C52.4 31.1833 52.1333 31.1 51.9 30.9167C42.2333 23.45 29.75 23.45 20.1 30.9167C19.55 31.3333 18.7667 31.2333 18.35 30.7C17.9333 30.15 18.0333 29.3667 18.5666 28.95C29.15 20.7667 42.8333 20.7667 53.4333 28.95C53.9833 29.3667 54.0833 30.15 53.65 30.7C53.4166 31.0167 53.0333 31.1833 52.6667 31.1833Z" fill="#003566"/>
<path d="M44.6833 43.0662C44.4167 43.0662 44.15 42.9828 43.9167 42.7995C39.1167 39.0828 32.9 39.0828 28.0833 42.7995C27.5333 43.2162 26.75 43.1162 26.3333 42.5828C25.9167 42.0328 26.0167 41.2495 26.55 40.8328C32.2833 36.3995 39.7 36.3995 45.4333 40.8328C45.9833 41.2495 46.0833 42.0328 45.65 42.5828C45.4167 42.8995 45.05 43.0662 44.6833 43.0662Z" fill="#003566"/>
<path opacity="0.4" d="M40.3333 49.1661C40.0667 49.1661 39.8 49.0828 39.5667 48.8995C37.4 47.2162 34.5833 47.2162 32.4167 48.8995C31.8667 49.3162 31.0833 49.2162 30.6667 48.6828C30.25 48.1328 30.35 47.3495 30.8833 46.9328C33.9833 44.5328 37.9833 44.5328 41.0833 46.9328C41.6333 47.3495 41.7333 48.1328 41.3 48.6828C41.0833 48.9828 40.7167 49.1661 40.3333 49.1661Z" fill="#003566"/>
</g>
</svg>
