<svg width="81" height="80" viewBox="0 0 81 80" fill="none" xmlns="http://www.w3.org/2000/svg">
<path opacity="0.4" d="M68.8333 33.966H59.2C51.3 33.966 44.8667 27.5327 44.8667 19.6327V9.99935C44.8667 8.16602 43.3667 6.66602 41.5333 6.66602H27.4C17.1333 6.66602 8.83334 13.3327 8.83334 25.2327V54.766C8.83334 66.666 17.1333 73.3327 27.4 73.3327H53.6C63.8667 73.3327 72.1667 66.666 72.1667 54.766V37.2993C72.1667 35.466 70.6667 33.966 68.8333 33.966Z" fill="#557899"/>
<path d="M53.1667 7.36632C51.8 5.99965 49.4333 6.93298 49.4333 8.83298V20.4663C49.4333 25.333 53.5667 29.3663 58.6 29.3663C61.7667 29.3997 66.1667 29.3996 69.9333 29.3996C71.8333 29.3996 72.8333 27.1663 71.5 25.833C66.7 20.9997 58.1 12.2997 53.1667 7.36632Z" fill="#557899"/>
<path d="M38.9333 41.566L32.2667 34.8993C32.2333 34.866 32.2 34.866 32.2 34.8327C32 34.6327 31.7333 34.466 31.4667 34.3327C31.4333 34.3327 31.4333 34.3327 31.4 34.3327C31.1333 34.2327 30.8667 34.1993 30.6 34.166C30.5 34.166 30.4333 34.166 30.3333 34.166C30.1333 34.166 29.9 34.2327 29.7 34.2993C29.6 34.3327 29.5333 34.366 29.4667 34.3993C29.2 34.5327 28.9333 34.666 28.7333 34.8993L22.0667 41.566C21.1 42.5327 21.1 44.1327 22.0667 45.0993C23.0333 46.066 24.6333 46.066 25.6 45.0993L28 42.6994V56.666C28 58.0327 29.1333 59.166 30.5 59.166C31.8667 59.166 33 58.0327 33 56.666V42.6994L35.4 45.0993C35.9 45.5993 36.5333 45.8327 37.1667 45.8327C37.8 45.8327 38.4333 45.5993 38.9333 45.0993C39.9 44.1327 39.9 42.5327 38.9333 41.566Z" fill="#557899"/>
</svg>
