<svg width="72" height="72" viewBox="0 0 72 72" fill="none" xmlns="http://www.w3.org/2000/svg">
<rect width="72" height="72" rx="10" fill="#CCD7E0"/>
<path d="M51.1 35.7L50.8333 35.3333C50.3667 34.7667 49.8167 34.3167 49.1833 33.9833C48.3333 33.5 47.3667 33.25 46.3667 33.25H25.6167C24.6167 33.25 23.6667 33.5 22.8 33.9833C22.15 34.3333 21.5667 34.8167 21.0833 35.4167C20.1333 36.6333 19.6833 38.1333 19.8333 39.6333L20.45 47.4167C20.6667 49.7667 20.95 52.6667 26.2333 52.6667H45.7667C51.05 52.6667 51.3167 49.7667 51.55 47.4L52.1667 39.65C52.3167 38.25 51.95 36.85 51.1 35.7ZM39.9833 44.9H32C31.35 44.9 30.8333 44.3667 30.8333 43.7333C30.8333 43.1 31.35 42.5667 32 42.5667H39.9833C40.6333 42.5667 41.15 43.1 41.15 43.7333C41.15 44.3833 40.6333 44.9 39.9833 44.9Z" fill="#003566"/>
<path opacity="0.4" d="M21.6333 34.8507C22 34.5173 22.3667 34.2173 22.8 33.984C23.65 33.5007 24.6167 33.2507 25.6167 33.2507H46.3833C47.3833 33.2507 48.3333 33.5007 49.2 33.984C49.6333 34.2173 50.0167 34.5173 50.3667 34.8673V33.984V32.3673C50.3667 26.4173 48.55 24.6007 42.6 24.6007H38.6333C37.9 24.6007 37.8833 24.584 37.45 24.0173L35.45 21.334C34.5 20.1007 33.75 19.334 31.3667 19.334H29.4C23.45 19.334 21.6333 21.1507 21.6333 27.1007V34.0007V34.8507Z" fill="#003566"/>
</svg>
