<svg width="40" height="40" viewBox="0 0 40 40" fill="none" xmlns="http://www.w3.org/2000/svg">
<path d="M36.6666 18.4491V27.7491C36.6666 32.6658 32.6666 36.6658 27.75 36.6658H12.25C7.33331 36.6658 3.33331 32.6658 3.33331 27.7491V15.7324H36.2333C36.4833 16.4824 36.6166 17.2491 36.65 18.0658C36.6666 18.1824 36.6666 18.3324 36.6666 18.4491Z" fill="#003566"/>
<path opacity="0.4" d="M36.2333 15.734H3.33331V10.7007C3.33331 6.63398 6.63331 3.33398 10.7 3.33398H14.5833C17.3 3.33398 18.15 4.21732 19.2333 5.66732L21.5666 8.76732C22.0833 9.45065 22.15 9.55065 23.1166 9.55065H27.7666C31.7166 9.53398 35.0833 12.134 36.2333 15.734Z" fill="#003566"/>
</svg>
