<svg width="27" height="27" viewBox="0 0 27 27" fill="none" xmlns="http://www.w3.org/2000/svg">
<path d="M13.2838 2.39414C16.8328 2.39414 17.2494 2.40996 18.6521 2.47324C19.9494 2.53125 20.6508 2.74746 21.1201 2.93203C21.7424 3.17461 22.1854 3.45938 22.6494 3.92344C23.1135 4.3875 23.4035 4.83047 23.6408 5.45273C23.8201 5.92207 24.0416 6.62344 24.0996 7.9207C24.1629 9.32344 24.1787 9.74004 24.1787 13.2891C24.1787 16.8381 24.1629 17.2547 24.0996 18.6574C24.0416 19.9547 23.8254 20.6561 23.6408 21.1254C23.3982 21.7477 23.1135 22.1906 22.6494 22.6547C22.1854 23.1187 21.7424 23.4088 21.1201 23.6461C20.6508 23.8254 19.9494 24.0469 18.6521 24.1049C17.2494 24.1682 16.8328 24.184 13.2838 24.184C9.73477 24.184 9.31816 24.1682 7.91543 24.1049C6.61816 24.0469 5.9168 23.8307 5.44746 23.6461C4.8252 23.4035 4.38223 23.1187 3.91816 22.6547C3.4541 22.1906 3.16406 21.7477 2.92676 21.1254C2.74746 20.6561 2.52598 19.9547 2.46797 18.6574C2.40469 17.2547 2.38887 16.8381 2.38887 13.2891C2.38887 9.74004 2.40469 9.32344 2.46797 7.9207C2.52598 6.62344 2.74219 5.92207 2.92676 5.45273C3.16934 4.83047 3.4541 4.3875 3.91816 3.92344C4.38223 3.45938 4.8252 3.16934 5.44746 2.93203C5.9168 2.75273 6.61816 2.53125 7.91543 2.47324C9.31816 2.40469 9.73477 2.39414 13.2838 2.39414ZM13.2838 0C9.67676 0 9.22324 0.0158203 7.80469 0.0791016C6.39141 0.142383 5.42637 0.369141 4.58262 0.696094C3.70723 1.03359 2.96895 1.49238 2.23066 2.23066C1.49238 2.96895 1.03887 3.7125 0.696094 4.58262C0.369141 5.42637 0.142383 6.39141 0.0791016 7.80996C0.0158203 9.22324 0 9.67676 0 13.2838C0 16.8908 0.0158203 17.3443 0.0791016 18.7629C0.142383 20.1762 0.369141 21.1412 0.696094 21.9902C1.03359 22.8656 1.49238 23.6039 2.23066 24.3422C2.96895 25.0805 3.7125 25.534 4.58262 25.8768C5.42637 26.2037 6.39141 26.4305 7.80996 26.4937C9.22851 26.557 9.67676 26.5729 13.2891 26.5729C16.9014 26.5729 17.3496 26.557 18.7682 26.4937C20.1814 26.4305 21.1465 26.2037 21.9955 25.8768C22.8709 25.5393 23.6092 25.0805 24.3475 24.3422C25.0857 23.6039 25.5393 22.8604 25.882 21.9902C26.209 21.1465 26.4357 20.1814 26.499 18.7629C26.5623 17.3443 26.5781 16.8961 26.5781 13.2838C26.5781 9.67148 26.5623 9.22324 26.499 7.80469C26.4357 6.39141 26.209 5.42637 25.882 4.57734C25.5445 3.70195 25.0857 2.96367 24.3475 2.22539C23.6092 1.48711 22.8656 1.03359 21.9955 0.69082C21.1518 0.363867 20.1867 0.137109 18.7682 0.0738281C17.3443 0.0158203 16.8908 0 13.2838 0Z" fill="white"/>
<path d="M13.2838 6.45898C9.51855 6.45898 6.45996 9.5123 6.45996 13.2828C6.45996 17.0533 9.51855 20.1066 13.2838 20.1066C17.049 20.1066 20.1076 17.048 20.1076 13.2828C20.1076 9.51758 17.049 6.45898 13.2838 6.45898ZM13.2838 17.7125C10.8369 17.7125 8.8541 15.7297 8.8541 13.2828C8.8541 10.8359 10.8369 8.85313 13.2838 8.85313C15.7307 8.85313 17.7135 10.8359 17.7135 13.2828C17.7135 15.7297 15.7307 17.7125 13.2838 17.7125Z" fill="white"/>
<path d="M20.3765 7.78281C21.2561 7.78281 21.9691 7.06979 21.9691 6.19023C21.9691 5.31068 21.2561 4.59766 20.3765 4.59766C19.497 4.59766 18.7839 5.31068 18.7839 6.19023C18.7839 7.06979 19.497 7.78281 20.3765 7.78281Z" fill="white"/>
</svg>
