<svg width="92" height="92" viewBox="0 0 92 92" fill="none" xmlns="http://www.w3.org/2000/svg">
<rect width="92" height="92" rx="5" fill="#E3D6E7"/>
<path opacity="0.4" d="M71 35.525V50.75L66.925 47.25C64.975 45.575 61.825 45.575 59.875 47.25L49.475 56.175C47.525 57.85 44.375 57.85 42.425 56.175L41.575 55.475C39.8 53.925 36.975 53.775 34.975 55.125L22.675 63.375L22.4 63.575C21.475 61.575 21 59.2 21 56.475V35.525C21 26.425 26.425 21 35.525 21H56.475C65.575 21 71 26.425 71 35.525Z" fill="#763287"/>
<path d="M38.5 41.9508C41.7861 41.9508 44.45 39.2869 44.45 36.0008C44.45 32.7147 41.7861 30.0508 38.5 30.0508C35.2139 30.0508 32.55 32.7147 32.55 36.0008C32.55 39.2869 35.2139 41.9508 38.5 41.9508Z" fill="#763287"/>
<path d="M71 50.7504V56.4754C71 65.5754 65.575 71.0004 56.475 71.0004H35.525C29.15 71.0004 24.55 68.3254 22.4 63.5754L22.675 63.3754L34.975 55.1254C36.975 53.7754 39.8 53.9254 41.575 55.4754L42.425 56.1754C44.375 57.8504 47.525 57.8504 49.475 56.1754L59.875 47.2504C61.825 45.5754 64.975 45.5754 66.925 47.2504L71 50.7504Z" fill="#763287"/>
</svg>
