<svg width="250" height="75" viewBox="0 0 250 75" fill="none" xmlns="http://www.w3.org/2000/svg">
<path d="M124.242 1.10798C158.559 0.0968448 189.731 3.28389 212.383 9.24354C223.712 12.2242 232.883 15.8915 239.247 20.0554C245.626 24.2284 249.09 28.833 249.233 33.6675C249.375 38.502 246.188 43.3026 240.066 47.8438C233.958 52.3752 225.018 56.5762 213.885 60.2187C191.623 67.5016 160.693 72.5185 126.376 73.5296C92.0582 74.5407 60.8864 71.3537 38.2348 65.394C26.906 62.4134 17.735 58.7461 11.3701 54.5821C4.99148 50.4092 1.52735 45.8046 1.3849 40.9701C1.24246 36.1356 4.42948 31.335 10.5513 26.7938C16.66 22.2623 25.5992 18.0614 36.7329 14.4189C58.9943 7.13594 89.9243 2.11912 124.242 1.10798Z" stroke="white" stroke-width="0.931485"/>
</svg>
