<svg width="254" height="82" viewBox="0 0 254 82" fill="none" xmlns="http://www.w3.org/2000/svg">
<path d="M131.972 4.43241C166.744 9.11133 197.646 17.5011 219.497 27.2717C230.425 32.1584 239.064 37.3792 244.79 42.6347C250.529 47.9016 253.258 53.1198 252.599 58.0183C251.939 62.9167 247.929 67.2281 241.002 70.7906C234.09 74.3455 224.378 77.0971 212.547 78.9212C188.891 82.5683 156.87 82.4909 122.098 77.812C87.3269 73.1331 56.4244 64.7434 34.5737 54.9727C23.6453 50.086 15.0068 44.8653 9.28036 39.6097C3.54149 34.3429 0.813078 29.1247 1.47223 24.2262C2.13138 19.3277 6.1421 15.0163 13.0691 11.4538C19.9811 7.89893 29.6924 5.14734 41.5237 3.32327C65.18 -0.323872 97.201 -0.246513 131.972 4.43241Z" stroke="white" stroke-width="0.9519"/>
</svg>
