<svg width="93" height="92" viewBox="0 0 93 92" fill="none" xmlns="http://www.w3.org/2000/svg">
<rect x="0.5" width="92" height="92" rx="5" fill="#CEF2E8"/>
<path opacity="0.4" d="M71.5 35.525V50.75L67.425 47.25C65.475 45.575 62.325 45.575 60.375 47.25L49.975 56.175C48.025 57.85 44.875 57.85 42.925 56.175L42.075 55.475C40.3 53.925 37.475 53.775 35.475 55.125L23.175 63.375L22.9 63.575C21.975 61.575 21.5 59.2 21.5 56.475V35.525C21.5 26.425 26.925 21 36.025 21H56.975C66.075 21 71.5 26.425 71.5 35.525Z" fill="#0CBC8B"/>
<path d="M39 41.9508C42.2861 41.9508 44.95 39.2869 44.95 36.0008C44.95 32.7147 42.2861 30.0508 39 30.0508C35.7139 30.0508 33.05 32.7147 33.05 36.0008C33.05 39.2869 35.7139 41.9508 39 41.9508Z" fill="#0CBC8B"/>
<path d="M71.5 50.7504V56.4754C71.5 65.5754 66.075 71.0004 56.975 71.0004H36.025C29.65 71.0004 25.05 68.3254 22.9 63.5754L23.175 63.3754L35.475 55.1254C37.475 53.7754 40.3 53.9254 42.075 55.4754L42.925 56.1754C44.875 57.8504 48.025 57.8504 49.975 56.1754L60.375 47.2504C62.325 45.5754 65.475 45.5754 67.425 47.2504L71.5 50.7504Z" fill="#0CBC8B"/>
</svg>
