<svg width="72" height="72" viewBox="0 0 72 72" fill="none" xmlns="http://www.w3.org/2000/svg">
<rect width="72" height="72" rx="10" fill="#CCD7E0"/>
<path d="M43.9167 21.934V19.334C43.9167 18.6507 43.35 18.084 42.6667 18.084C41.9833 18.084 41.4167 18.6507 41.4167 19.334V21.834H30.5833V19.334C30.5833 18.6507 30.0167 18.084 29.3333 18.084C28.65 18.084 28.0833 18.6507 28.0833 19.334V21.934C23.5833 22.3506 21.4 25.034 21.0667 29.0173C21.0333 29.5006 21.4333 29.9006 21.9 29.9006H50.1C50.5833 29.9006 50.9833 29.484 50.9333 29.0173C50.6 25.034 48.4167 22.3506 43.9167 21.934Z" fill="#003566"/>
<path opacity="0.4" d="M51 34.0662V36.9661C51 37.9828 50.1 38.7662 49.1 38.5995C48.6333 38.5328 48.15 38.4828 47.6667 38.4828C42.6167 38.4828 38.5 42.5995 38.5 47.6495C38.5 48.4162 38.8 49.4829 39.1167 50.4495C39.4833 51.5329 38.6833 52.6495 37.5333 52.6495H29.3333C23.5 52.6495 21 49.3162 21 44.3162V34.0495C21 33.1328 21.75 32.3828 22.6667 32.3828H49.3333C50.25 32.3995 51 33.1495 51 34.0662Z" fill="#003566"/>
<path d="M47.6667 41C43.9833 41 41 43.9833 41 47.6667C41 48.9167 41.35 50.1 41.9667 51.1C43.1167 53.0333 45.2333 54.3333 47.6667 54.3333C50.1 54.3333 52.2167 53.0333 53.3667 51.1C53.9833 50.1 54.3333 48.9167 54.3333 47.6667C54.3333 43.9833 51.35 41 47.6667 41ZM51.1167 46.95L47.5667 50.2333C47.3333 50.45 47.0167 50.5666 46.7167 50.5666C46.4 50.5666 46.0833 50.45 45.8333 50.2L44.1833 48.55C43.7 48.0667 43.7 47.2667 44.1833 46.7833C44.6667 46.3 45.4667 46.3 45.95 46.7833L46.75 47.5834L49.4167 45.1167C49.9167 44.65 50.7167 44.6833 51.1833 45.1833C51.65 45.6833 51.6167 46.4667 51.1167 46.95Z" fill="#003566"/>
<path d="M30.1667 41.0008C29.7333 41.0008 29.3 40.8175 28.9833 40.5175C28.6833 40.2008 28.5 39.7675 28.5 39.3342C28.5 38.9008 28.6833 38.4675 28.9833 38.1508C29.3667 37.7675 29.95 37.5841 30.5 37.7008C30.6 37.7175 30.7 37.7508 30.8 37.8008C30.9 37.8341 31 37.8842 31.1 37.9509C31.1833 38.0175 31.2667 38.0842 31.35 38.1508C31.65 38.4675 31.8333 38.9008 31.8333 39.3342C31.8333 39.7675 31.65 40.2008 31.35 40.5175C31.2667 40.5842 31.1833 40.6508 31.1 40.7175C31 40.7841 30.9 40.8342 30.8 40.8675C30.7 40.9175 30.6 40.9509 30.5 40.9675C30.3833 40.9842 30.2667 41.0008 30.1667 41.0008Z" fill="#003566"/>
<path d="M36 41C35.5667 41 35.1333 40.8166 34.8167 40.5166C34.5167 40.2 34.3333 39.7667 34.3333 39.3333C34.3333 38.9 34.5167 38.4667 34.8167 38.15C35.45 37.5333 36.5667 37.5333 37.1833 38.15C37.4833 38.4667 37.6667 38.9 37.6667 39.3333C37.6667 39.7667 37.4833 40.2 37.1833 40.5166C36.8667 40.8166 36.4333 41 36 41Z" fill="#003566"/>
<path d="M30.1667 46.8334C29.7333 46.8334 29.3 46.6501 28.9833 46.3501C28.6833 46.0334 28.5 45.6001 28.5 45.1668C28.5 44.7334 28.6833 44.3001 28.9833 43.9835C29.15 43.8335 29.3167 43.7168 29.5333 43.6334C30.15 43.3668 30.8833 43.5168 31.35 43.9835C31.65 44.3001 31.8333 44.7334 31.8333 45.1668C31.8333 45.6001 31.65 46.0334 31.35 46.3501C31.0333 46.6501 30.6 46.8334 30.1667 46.8334Z" fill="#003566"/>
</svg>
