<svg width="40" height="40" viewBox="0 0 40 40" fill="none" xmlns="http://www.w3.org/2000/svg">
<path opacity="0.4" d="M18.2667 3.51631L9.10002 6.94965C7.35002 7.61631 5.91669 9.68298 5.91669 11.5663V25.0663C5.91669 26.4163 6.80002 28.1996 7.88335 28.9996L17.05 35.8496C18.6667 37.0663 21.3167 37.0663 22.9334 35.8496L32.1 28.9996C33.1834 28.183 34.0667 26.4163 34.0667 25.0663V11.5663C34.0667 9.69965 32.6334 7.61631 30.8834 6.96631L21.7167 3.53298C20.7834 3.16631 19.2167 3.16631 18.2667 3.51631Z" fill="#003566"/>
<path d="M24.1666 17.5007C24.1666 15.2007 22.3 13.334 20 13.334C17.7 13.334 15.8333 15.2007 15.8333 17.5007C15.8333 19.3673 17.0666 20.9173 18.75 21.4507V25.834C18.75 26.5173 19.3166 27.084 20 27.084C20.6833 27.084 21.25 26.5173 21.25 25.834V21.4507C22.9333 20.9173 24.1666 19.3673 24.1666 17.5007Z" fill="#003566"/>
</svg>
