<svg width="120" height="120" viewBox="0 0 120 120" fill="none" xmlns="http://www.w3.org/2000/svg">
<path d="M120 0H0V120H120V0Z" fill="white"/>
<path d="M103.3 40.1992C103.3 41.3492 103 42.5492 102.25 43.4992L55.35 103.199C53.65 105.349 51.65 106.099 49.95 105.499L50 104.999L55 49.9992L100.2 40.9492L103.3 40.1992Z" fill="#FF00C7"/>
<path opacity="0.4" d="M103.3 40.2L100.2 40.95L55 50L84.75 20.25C85.35 20.5 85.85 20.85 86.2 21.2L101.85 36.85C102.75 37.75 103.25 38.95 103.3 40.2Z" fill="#FF00C7"/>
<path d="M84.75 20.2505L55 50.0005L15.05 14.5005L13.3 12.8005V12.7505C14.3 11.4505 16.1 10.8005 18.5 11.1505L83.3 19.8005C83.75 19.8505 84.25 20.0005 84.75 20.2505Z" fill="#2A5780"/>
<path opacity="0.4" d="M55 50.0008L50 105.001L49.95 105.501C48.7 105.051 47.55 103.851 46.8 101.951L13.2 17.9508C12.35 15.8508 12.45 14.0508 13.3 12.8008L15.05 14.5008L55 50.0008Z" fill="#2A5780"/>
</svg>
