<svg width="72" height="72" viewBox="0 0 72 72" fill="none" xmlns="http://www.w3.org/2000/svg">
<rect width="72" height="72" rx="10" fill="#F5CCCC"/>
<path opacity="0.4" d="M51.1337 30.2988V41.6987C51.1337 43.5654 50.1336 45.2988 48.517 46.2488L38.617 51.9654C37.0003 52.8988 35.0003 52.8988 33.3669 51.9654L23.4669 46.2488C21.8503 45.3154 20.8503 43.582 20.8503 41.6987V30.2988C20.8503 28.4321 21.8503 26.6987 23.4669 25.7487L33.3669 20.032C34.9836 19.0987 36.9836 19.0987 38.617 20.032L48.517 25.7487C50.1336 26.6987 51.1337 28.4154 51.1337 30.2988Z" fill="#CD0000"/>
<path d="M36 38.916C35.3167 38.916 34.75 38.3493 34.75 37.666V28.916C34.75 28.2327 35.3167 27.666 36 27.666C36.6833 27.666 37.25 28.2327 37.25 28.916V37.666C37.25 38.3493 36.6833 38.916 36 38.916Z" fill="#CD0000"/>
<path d="M36 44.7494C35.7833 44.7494 35.5667 44.6994 35.3667 44.6161C35.15 44.5327 34.9833 44.4161 34.8166 44.2661C34.6666 44.0995 34.55 43.9161 34.45 43.7161C34.3667 43.5161 34.3333 43.2994 34.3333 43.0828C34.3333 42.6494 34.5 42.2161 34.8166 41.8994C34.9833 41.7494 35.15 41.6328 35.3667 41.5495C35.9833 41.2828 36.7167 41.4327 37.1834 41.8994C37.3334 42.0661 37.45 42.2328 37.5333 42.4494C37.6166 42.6494 37.6667 42.8661 37.6667 43.0828C37.6667 43.2994 37.6166 43.5161 37.5333 43.7161C37.45 43.9161 37.3334 44.0995 37.1834 44.2661C36.8667 44.5828 36.45 44.7494 36 44.7494Z" fill="#CD0000"/>
</svg>
