<svg width="244" height="136" viewBox="0 0 244 136" fill="none" xmlns="http://www.w3.org/2000/svg">
<g filter="url(#filter0_d_244_3111)">
<rect x="35.9072" y="36" width="169" height="39" rx="5" transform="rotate(5.74945 35.9072 36)" fill="#FFF1AD" shape-rendering="crispEdges"/>
<path d="M64.0961 56.4737L61.0009 56.162C60.9847 55.7559 60.9051 55.3886 60.7621 55.0601C60.6196 54.7269 60.4229 54.4359 60.1719 54.1869C59.921 53.938 59.6224 53.7366 59.2762 53.5828C58.9347 53.4295 58.5567 53.3319 58.1422 53.2902C57.3931 53.2148 56.7219 53.3351 56.1285 53.6513C55.5356 53.9628 55.0505 54.4565 54.6731 55.1323C54.2962 55.8034 54.0573 56.6407 53.9562 57.6442C53.8524 58.6759 53.9182 59.5581 54.1537 60.2909C54.394 61.0241 54.774 61.5978 55.2939 62.0118C55.8137 62.4258 56.4388 62.6696 57.169 62.7431C57.5788 62.7843 57.9635 62.7683 58.3231 62.6951C58.6873 62.6223 59.0165 62.496 59.3106 62.3163C59.6052 62.1318 59.8571 61.8978 60.0665 61.6143C60.2806 61.3313 60.4424 61.0002 60.552 60.621L63.6457 60.9468C63.4987 61.603 63.234 62.2235 62.8515 62.8084C62.4742 63.3891 61.9926 63.895 61.4067 64.3261C60.826 64.7531 60.1516 65.0706 59.3835 65.2788C58.6206 65.4828 57.7751 65.538 56.847 65.4446C55.5562 65.3146 54.4314 64.9063 53.4726 64.2197C52.5186 63.5335 51.8028 62.6073 51.3254 61.4409C50.8527 60.275 50.6956 58.9053 50.854 57.3318C51.0129 55.7536 51.4449 54.4409 52.15 53.3935C52.855 52.3462 53.7455 51.584 54.8214 51.107C55.8978 50.6253 57.072 50.4485 58.344 50.5766C59.1826 50.661 59.948 50.857 60.6404 51.1647C61.3375 51.4728 61.9412 51.881 62.4515 52.3892C62.9624 52.8927 63.3594 53.4871 63.6425 54.1723C63.9304 54.858 64.0816 55.6251 64.0961 56.4737ZM65.3433 66.1002L66.8004 51.6279L72.5102 52.2028C73.6031 52.3128 74.5162 52.6022 75.2495 53.071C75.9879 53.5356 76.5239 54.144 76.8574 54.8961C77.1961 55.644 77.3173 56.4962 77.221 57.4525C77.1243 58.4136 76.8337 59.2195 76.3494 59.8703C75.8656 60.5163 75.2118 60.9835 74.3881 61.2717C73.5691 61.5605 72.6036 61.6488 71.4918 61.5369L67.6688 61.152L67.9164 58.6928L71.2448 59.0279C71.8289 59.0868 72.3222 59.0555 72.7247 58.9343C73.1271 58.813 73.4387 58.6016 73.6594 58.3003C73.8848 57.9994 74.0214 57.611 74.0693 57.1352C74.1177 56.6547 74.0619 56.2398 73.902 55.8906C73.7467 55.5418 73.4822 55.263 73.1082 55.054C72.7395 54.8408 72.2606 54.7046 71.6718 54.6453L69.6083 54.4375L68.4031 66.4082L65.3433 66.1002ZM73.822 60.3011L76.7557 67.2492L73.3779 66.9091L70.5219 59.9688L73.822 60.3011ZM78.4022 67.415L79.8594 52.9427L89.6112 53.9246L89.3572 56.4473L82.6652 55.7736L82.318 59.222L88.5083 59.8453L88.2543 62.3681L82.064 61.7448L81.716 65.2003L88.4363 65.877L88.1823 68.3997L78.4022 67.415ZM93.0812 68.893L89.8023 68.5628L96.2555 54.5936L100.199 54.9906L103.73 69.9652L100.452 69.635L97.9506 58.1049L97.8376 58.0935L93.0812 68.893ZM93.449 63.1838L101.194 63.9636L100.953 66.352L93.2085 65.5722L93.449 63.1838ZM104.356 57.9575L104.61 55.4347L116.496 56.6315L116.242 59.1542L111.811 58.7081L110.608 70.6576L107.584 70.3531L108.787 58.4036L104.356 57.9575ZM116.996 71.3008L118.453 56.8286L128.205 57.8104L127.951 60.3332L121.259 59.6594L120.912 63.1079L127.102 63.7311L126.848 66.2539L120.658 65.6306L120.31 69.0862L127.03 69.7628L126.776 72.2855L116.996 71.3008ZM138.917 73.5079L133.786 72.9913L135.243 58.5191L140.416 59.0399C141.872 59.1864 143.096 59.6023 144.088 60.2876C145.081 60.9681 145.805 61.8762 146.262 63.012C146.724 64.1482 146.879 65.4677 146.727 66.9705C146.575 68.4781 146.16 69.7449 145.481 70.771C144.806 71.7977 143.91 72.5473 142.792 73.0201C141.678 73.4933 140.386 73.6559 138.917 73.5079ZM137.11 70.6777L139.053 70.8734C139.958 70.9645 140.735 70.8809 141.384 70.6227C142.039 70.3602 142.556 69.9055 142.935 69.2584C143.319 68.6071 143.566 67.742 143.675 66.6632C143.782 65.5938 143.712 64.704 143.465 63.9938C143.222 63.2841 142.809 62.738 142.224 62.3555C141.639 61.9731 140.894 61.7363 139.99 61.6452L138.039 61.4488L137.11 70.6777ZM149.942 74.618L146.663 74.2879L153.116 60.3186L157.06 60.7156L160.591 75.6902L157.313 75.3601L154.812 63.83L154.699 63.8186L149.942 74.618ZM150.31 68.9088L158.055 69.6886L157.814 72.0771L150.069 71.2973L150.31 68.9088ZM161.217 63.6825L161.471 61.1598L173.357 62.3565L173.103 64.8793L168.672 64.4332L167.469 76.3827L164.444 76.0782L165.648 64.1286L161.217 63.6825ZM173.857 77.0259L175.314 62.5536L185.066 63.5355L184.812 66.0582L178.12 65.3844L177.773 68.8329L183.963 69.4562L183.709 71.9789L177.519 71.3557L177.171 74.8112L183.891 75.4878L183.637 78.0106L173.857 77.0259Z" fill="#332B02"/>
</g>
<defs>
<filter id="filter0_d_244_3111" x="-8" y="0" width="252.057" height="135.734" filterUnits="userSpaceOnUse" color-interpolation-filters="sRGB">
<feFlood flood-opacity="0" result="BackgroundImageFix"/>
<feColorMatrix in="SourceAlpha" type="matrix" values="0 0 0 0 0 0 0 0 0 0 0 0 0 0 0 0 0 0 127 0" result="hardAlpha"/>
<feOffset dy="4"/>
<feGaussianBlur stdDeviation="20"/>
<feComposite in2="hardAlpha" operator="out"/>
<feColorMatrix type="matrix" values="0 0 0 0 0 0 0 0 0 0 0 0 0 0 0 0 0 0 0.15 0"/>
<feBlend mode="normal" in2="BackgroundImageFix" result="effect1_dropShadow_244_3111"/>
<feBlend mode="normal" in="SourceGraphic" in2="effect1_dropShadow_244_3111" result="shape"/>
</filter>
</defs>
</svg>
