<svg width="251" height="136" viewBox="0 0 251 136" fill="none" xmlns="http://www.w3.org/2000/svg">
<g filter="url(#filter0_d_244_3113)">
<rect x="35.9072" y="36" width="176" height="39" rx="5" transform="rotate(5.74945 35.9072 36)" fill="#FFF1AD" shape-rendering="crispEdges"/>
<path d="M55.5102 65.1101L50.3798 64.5936L51.837 50.1213L57.0097 50.6421C58.4654 50.7887 59.6894 51.2046 60.6816 51.8898C61.6743 52.5703 62.399 53.4785 62.8557 54.6142C63.3171 55.7504 63.4721 57.0699 63.3208 58.5728C63.169 60.0803 62.7536 61.3471 62.0745 62.3733C61.4 63.3999 60.5037 64.1496 59.3853 64.6223C58.2717 65.0955 56.98 65.2581 55.5102 65.1101ZM53.7036 62.28L55.6469 62.4756C56.5514 62.5667 57.3284 62.4831 57.9778 62.2249C58.6324 61.9625 59.1493 61.5077 59.5285 60.8606C59.9129 60.2093 60.1595 59.3442 60.2681 58.2654C60.3758 57.196 60.3059 56.3062 60.0586 55.596C59.816 54.8863 59.4022 54.3402 58.8173 53.9578C58.2324 53.5753 57.4877 53.3385 56.5832 53.2474L54.6328 53.051L53.7036 62.28ZM78.8852 60.1541C78.7263 61.7323 78.292 63.0449 77.5822 64.0917C76.8772 65.139 75.9817 65.9031 74.8959 66.3838C73.8153 66.8604 72.6366 67.0344 71.3599 66.9058C70.0738 66.7763 68.949 66.368 67.9855 65.6809C67.0221 64.9938 66.2993 64.0669 65.8171 62.9C65.335 61.7331 65.1732 60.363 65.3316 58.7895C65.4905 57.2113 65.9225 55.8985 66.6275 54.8512C67.3326 53.8039 68.2254 53.042 69.3061 52.5654C70.3872 52.0842 71.5708 51.9083 72.8569 52.0378C74.1336 52.1663 75.2537 52.5742 76.2172 53.2613C77.1858 53.9441 77.9112 54.869 78.3933 56.0358C78.8802 57.2032 79.0441 58.5759 78.8852 60.1541ZM75.783 59.8418C75.886 58.8195 75.8196 57.942 75.5841 57.2092C75.3533 56.4769 74.9805 55.9016 74.4659 55.4834C73.9512 55.0651 73.324 54.8188 72.5844 54.7443C71.8448 54.6698 71.1811 54.7862 70.5934 55.0935C70.0057 55.4007 69.5234 55.8899 69.1465 56.561C68.7743 57.2326 68.5367 58.0795 68.4338 59.1018C68.3309 60.1241 68.3948 61.0014 68.6257 61.7337C68.8612 62.4665 69.2363 63.042 69.751 63.4603C70.2656 63.8785 70.8928 64.1249 71.6324 64.1993C72.3721 64.2738 73.0357 64.1574 73.6234 63.8502C74.2112 63.5429 74.6911 63.0535 75.0633 62.3819C75.4402 61.7108 75.6801 60.8641 75.783 59.8418ZM94.1395 59.4986L91.0444 59.187C91.0281 58.7808 90.9485 58.4135 90.8055 58.085C90.663 57.7519 90.4663 57.4608 90.2153 57.2119C89.9644 56.9629 89.6658 56.7616 89.3196 56.6077C88.9782 56.4544 88.6001 56.3568 88.1856 56.3151C87.4365 56.2397 86.7653 56.3601 86.1719 56.6763C85.579 56.9878 85.0939 57.4814 84.7165 58.1572C84.3396 58.8283 84.1007 59.6656 83.9996 60.6691C83.8958 61.7008 83.9616 62.583 84.1971 63.3158C84.4374 64.0491 84.8174 64.6227 85.3373 65.0367C85.8571 65.4507 86.4822 65.6945 87.2124 65.768C87.6222 65.8093 88.0069 65.7933 88.3665 65.72C88.7307 65.6472 89.0599 65.521 89.354 65.3412C89.6486 65.1567 89.9006 64.9227 90.1099 64.6392C90.324 64.3562 90.4858 64.0251 90.5954 63.6459L93.6891 63.9717C93.5422 64.6279 93.2774 65.2484 92.8949 65.8333C92.5176 66.414 92.036 66.9199 91.4501 67.3511C90.8694 67.778 90.195 68.0955 89.4269 68.3037C88.664 68.5077 87.8185 68.5629 86.8904 68.4695C85.5996 68.3395 84.4748 67.9312 83.516 67.2446C82.562 66.5585 81.8463 65.6322 81.3688 64.4658C80.8961 63.2999 80.739 61.9302 80.8974 60.3567C81.0563 58.7785 81.4883 57.4658 82.1934 56.4185C82.8984 55.3711 83.7889 54.609 84.8648 54.132C85.9412 53.6502 87.1154 53.4734 88.3874 53.6015C89.226 53.6859 89.9914 53.882 90.6838 54.1896C91.3809 54.4977 91.9846 54.9059 92.4949 55.4141C93.0058 55.9177 93.4028 56.512 93.6859 57.1973C93.9738 57.883 94.125 58.6501 94.1395 59.4986ZM105.783 55.5528L108.843 55.8609L107.897 65.2594C107.79 66.3147 107.445 67.2127 106.861 67.9534C106.282 68.6945 105.521 69.2413 104.576 69.5935C103.632 69.941 102.562 70.0545 101.366 69.9341C100.164 69.8131 99.1357 69.4883 98.28 68.9596C97.4248 68.4261 96.7873 67.7385 96.3677 66.8968C95.948 66.0551 95.7913 65.1066 95.8975 64.0513L96.8438 54.6528L99.9036 54.9609L98.9837 64.0979C98.9282 64.6491 98.999 65.1511 99.1961 65.604C99.3979 66.0574 99.7079 66.4289 100.126 66.7184C100.544 67.008 101.048 67.1824 101.637 67.2417C102.23 67.3015 102.758 67.2309 103.221 67.0301C103.689 66.8297 104.064 66.5272 104.348 66.1227C104.636 65.7187 104.808 65.2411 104.863 64.6899L105.783 55.5528ZM111.36 56.1144L115.134 56.4943L118.14 66.6192L118.31 66.6362L123.274 57.314L127.048 57.6939L125.591 72.1662L122.623 71.8674L123.571 62.4477L123.451 62.4356L118.765 71.4075L116.744 71.204L113.943 61.4426L113.823 61.4305L112.871 70.8855L109.903 70.5867L111.36 56.1144ZM128.112 72.42L129.569 57.9477L139.321 58.9296L139.067 61.4524L132.375 60.7786L132.028 64.227L138.218 64.8503L137.964 67.3731L131.774 66.7498L131.426 70.2053L138.146 70.882L137.892 73.4047L128.112 72.42ZM153.858 60.3933L152.401 74.8656L149.758 74.5995L144.379 64.8568L144.273 64.8461L143.356 73.9549L140.296 73.6468L141.753 59.1745L144.439 59.4449L149.769 69.1756L149.896 69.1884L150.813 60.0867L153.858 60.3933ZM155.581 63.1151L155.835 60.5924L167.721 61.7891L167.467 64.3119L163.037 63.8657L161.833 75.8153L158.809 75.5108L160.012 63.5612L155.581 63.1151ZM177.344 62.758L175.887 77.2303L172.827 76.9222L174.284 62.4499L177.344 62.758ZM183.535 78.0003L178.404 77.4837L179.862 63.0114L185.034 63.5323C186.49 63.6788 187.714 64.0947 188.706 64.78C189.699 65.4605 190.424 66.3686 190.88 67.5044C191.342 68.6406 191.497 69.9601 191.345 71.4629C191.194 72.9704 190.778 74.2373 190.099 75.2634C189.425 76.29 188.528 77.0397 187.41 77.5125C186.296 77.9857 185.005 78.1483 183.535 78.0003ZM181.728 75.1701L183.672 75.3658C184.576 75.4569 185.353 75.3733 186.002 75.1151C186.657 74.8526 187.174 74.3979 187.553 73.7508C187.938 73.0995 188.184 72.2344 188.293 71.1556C188.4 70.0861 188.331 69.1964 188.083 68.4862C187.841 67.7765 187.427 67.2304 186.842 66.8479C186.257 66.4654 185.512 66.2287 184.608 66.1376L182.657 65.9412L181.728 75.1701Z" fill="#332B02"/>
</g>
<defs>
<filter id="filter0_d_244_3113" x="-8" y="0" width="259.021" height="136.436" filterUnits="userSpaceOnUse" color-interpolation-filters="sRGB">
<feFlood flood-opacity="0" result="BackgroundImageFix"/>
<feColorMatrix in="SourceAlpha" type="matrix" values="0 0 0 0 0 0 0 0 0 0 0 0 0 0 0 0 0 0 127 0" result="hardAlpha"/>
<feOffset dy="4"/>
<feGaussianBlur stdDeviation="20"/>
<feComposite in2="hardAlpha" operator="out"/>
<feColorMatrix type="matrix" values="0 0 0 0 0 0 0 0 0 0 0 0 0 0 0 0 0 0 0.15 0"/>
<feBlend mode="normal" in2="BackgroundImageFix" result="effect1_dropShadow_244_3113"/>
<feBlend mode="normal" in="SourceGraphic" in2="effect1_dropShadow_244_3113" result="shape"/>
</filter>
</defs>
</svg>
