<svg width="213" height="169" viewBox="0 0 213 169" fill="none" xmlns="http://www.w3.org/2000/svg">
<g filter="url(#filter0_d_244_3107)">
<rect x="39" y="91.1445" width="131" height="39" rx="5" transform="rotate(-25.3774 39 91.1445)" fill="#FFF1AD" shape-rendering="crispEdges"/>
<path d="M66.17 108.14L59.9361 94.9985L68.6375 90.871L69.7241 93.1618L63.8013 95.9714L65.2867 99.1028L70.632 96.5673L71.7187 98.8581L66.3734 101.394L68.9485 106.822L66.17 108.14ZM73.2849 88.6665L79.5188 101.808L76.7403 103.126L70.5064 89.9845L73.2849 88.6665ZM81.8048 100.724L75.571 87.5821L78.3495 86.2641L83.4967 97.1151L89.1308 94.4426L90.2174 96.7334L81.8048 100.724ZM92.0575 95.8606L85.8236 82.7187L94.679 78.5181L95.7657 80.809L89.6888 83.6915L91.1742 86.823L96.7955 84.1566L97.8821 86.4474L92.2609 89.1139L93.7494 92.2517L99.8519 89.357L100.939 91.6478L92.0575 95.8606ZM101.656 78.0147L100.57 75.7239L111.363 70.604L112.45 72.8949L108.426 74.8034L113.573 85.6544L110.827 86.9572L105.68 76.1062L101.656 78.0147ZM112.37 70.1261L115.483 68.6499L121.164 72.8881L121.292 72.8272L121.604 65.746L124.717 64.2697L123.953 75.0395L126.157 79.6854L123.398 80.9942L121.194 76.3484L112.37 70.1261ZM132.468 76.6917L126.234 63.5498L131.419 61.0904C132.416 60.6175 133.355 60.4051 134.238 60.453C135.118 60.4967 135.901 60.7671 136.588 61.2642C137.276 61.755 137.828 62.4368 138.242 63.3095C138.656 64.1822 138.833 65.0415 138.773 65.8875C138.713 66.7334 138.414 67.5119 137.876 68.223C137.342 68.932 136.571 69.526 135.561 70.0049L132.257 71.5725L131.2 69.3458L134.056 67.9913C134.591 67.7376 134.988 67.4366 135.247 67.0883C135.508 66.7337 135.647 66.3511 135.661 65.9405C135.679 65.5236 135.585 65.0991 135.38 64.6671C135.173 64.2307 134.904 63.8916 134.575 63.6497C134.247 63.4014 133.866 63.2707 133.43 63.2574C132.992 63.2398 132.503 63.3589 131.964 63.6146L130.09 64.5034L135.247 75.3737L132.468 76.6917ZM144.168 71.1419L137.934 58.0001L146.789 53.7995L147.876 56.0903L141.799 58.9729L143.285 62.1044L148.906 59.4379L149.992 61.7288L144.371 64.3952L145.86 67.5331L151.962 64.6383L153.049 66.9292L144.168 71.1419Z" fill="#332B02"/>
</g>
<defs>
<filter id="filter0_d_244_3107" x="-1" y="-1" width="215.073" height="171.381" filterUnits="userSpaceOnUse" color-interpolation-filters="sRGB">
<feFlood flood-opacity="0" result="BackgroundImageFix"/>
<feColorMatrix in="SourceAlpha" type="matrix" values="0 0 0 0 0 0 0 0 0 0 0 0 0 0 0 0 0 0 127 0" result="hardAlpha"/>
<feOffset dy="4"/>
<feGaussianBlur stdDeviation="20"/>
<feComposite in2="hardAlpha" operator="out"/>
<feColorMatrix type="matrix" values="0 0 0 0 0 0 0 0 0 0 0 0 0 0 0 0 0 0 0.15 0"/>
<feBlend mode="normal" in2="BackgroundImageFix" result="effect1_dropShadow_244_3107"/>
<feBlend mode="normal" in="SourceGraphic" in2="effect1_dropShadow_244_3107" result="shape"/>
</filter>
</defs>
</svg>
