<svg width="222" height="142" viewBox="0 0 222 142" fill="none" xmlns="http://www.w3.org/2000/svg">
<g filter="url(#filter0_d_244_3105)">
<rect x="46.6279" y="36" width="138" height="39" rx="5" transform="rotate(9.7847 46.6279 36)" fill="#FFF1AD" shape-rendering="crispEdges"/>
<path d="M59.052 65.542L61.5239 51.2081L71.0145 52.8448L70.5836 55.3434L64.1236 54.2294L63.5346 57.6449L69.3647 58.6503L68.9338 61.1489L63.1037 60.1435L62.0825 66.0646L59.052 65.542ZM76.0835 53.719L73.6116 68.0528L70.581 67.5302L73.053 53.1963L76.0835 53.719ZM76.105 68.4828L78.5769 54.149L81.6074 54.6716L79.5664 66.5069L85.7115 67.5666L85.2806 70.0652L76.105 68.4828ZM87.2875 70.4113L89.7595 56.0775L99.418 57.7431L98.9871 60.2418L92.3591 59.0987L91.7701 62.5142L97.9012 63.5716L97.4703 66.0702L91.3392 65.0129L90.749 68.4353L97.405 69.5832L96.9741 72.0818L87.2875 70.4113ZM118.378 61.0129L115.906 75.3468L113.289 74.8954L108.608 64.7983L108.503 64.7802L106.948 73.8018L103.917 73.2792L106.389 58.9453L109.049 59.404L113.681 69.4856L113.807 69.5074L115.362 60.4927L118.378 61.0129ZM120.881 76.2047L117.633 75.6446L125.053 62.1641L128.959 62.8376L131.428 78.0236L128.181 77.4636L126.497 65.786L126.385 65.7667L120.881 76.2047ZM121.649 70.5355L129.32 71.8584L128.912 74.224L121.241 72.9011L121.649 70.5355ZM135.625 63.9873L139.363 64.6318L141.649 74.9431L141.817 74.9721L147.426 66.0223L151.163 66.6668L148.691 81.0007L145.752 80.4938L147.361 71.1641L147.242 71.1436L141.935 79.7635L139.934 79.4183L137.827 69.484L137.708 69.4635L136.093 78.8281L133.153 78.3211L135.625 63.9873ZM151.188 81.4313L153.66 67.0974L163.319 68.7631L162.888 71.2617L156.26 70.1187L155.671 73.5342L161.802 74.5915L161.371 77.0902L155.24 76.0328L154.649 79.4553L161.305 80.6032L160.875 83.1018L151.188 81.4313Z" fill="#332B02"/>
</g>
<defs>
<filter id="filter0_d_244_3105" x="0" y="0" width="222.62" height="141.885" filterUnits="userSpaceOnUse" color-interpolation-filters="sRGB">
<feFlood flood-opacity="0" result="BackgroundImageFix"/>
<feColorMatrix in="SourceAlpha" type="matrix" values="0 0 0 0 0 0 0 0 0 0 0 0 0 0 0 0 0 0 127 0" result="hardAlpha"/>
<feOffset dy="4"/>
<feGaussianBlur stdDeviation="20"/>
<feComposite in2="hardAlpha" operator="out"/>
<feColorMatrix type="matrix" values="0 0 0 0 0 0 0 0 0 0 0 0 0 0 0 0 0 0 0.15 0"/>
<feBlend mode="normal" in2="BackgroundImageFix" result="effect1_dropShadow_244_3105"/>
<feBlend mode="normal" in="SourceGraphic" in2="effect1_dropShadow_244_3105" result="shape"/>
</filter>
</defs>
</svg>
