<svg width="205" height="165" viewBox="0 0 205 165" fill="none" xmlns="http://www.w3.org/2000/svg">
<g filter="url(#filter0_d_244_3117)">
<rect x="39" y="87.2871" width="122" height="39" rx="5" transform="rotate(-25.3774 39 87.2871)" fill="#FFF1AD" shape-rendering="crispEdges"/>
<path d="M66.17 104.283L59.9361 91.1411L68.6375 87.0136L69.7241 89.3044L63.8013 92.1139L65.2867 95.2454L70.632 92.7098L71.7187 95.0007L66.3734 97.5362L68.9485 102.965L66.17 104.283ZM73.2849 84.809L79.5188 97.9509L76.7403 99.2689L70.5064 86.127L73.2849 84.809ZM81.8048 96.8665L75.571 83.7247L78.3495 82.4067L83.4967 93.2577L89.1308 90.5852L90.2174 92.876L81.8048 96.8665ZM92.0575 92.0032L85.8236 78.8613L94.679 74.6607L95.7657 76.9516L89.6888 79.8341L91.1742 82.9656L96.7955 80.2991L97.8821 82.59L92.2609 85.2564L93.7494 88.3943L99.8519 85.4996L100.939 87.7904L92.0575 92.0032ZM109.992 72.0268C109.695 71.5335 109.284 71.2359 108.759 71.134C108.234 71.032 107.638 71.1393 106.97 71.4559C106.517 71.671 106.164 71.9168 105.913 72.1932C105.659 72.4654 105.502 72.7523 105.441 73.0539C105.384 73.3535 105.422 73.6444 105.556 73.9268C105.659 74.1661 105.806 74.3481 105.996 74.4728C106.19 74.5954 106.414 74.6753 106.668 74.7123C106.919 74.745 107.193 74.7486 107.49 74.723C107.785 74.6931 108.091 74.6423 108.408 74.5705L109.723 74.2927C110.357 74.1491 110.964 74.0707 111.545 74.0573C112.126 74.0439 112.665 74.1102 113.164 74.2561C113.663 74.4019 114.109 74.641 114.503 74.9732C114.9 75.3034 115.231 75.7412 115.495 76.2868C115.873 77.0931 115.998 77.8878 115.872 78.6709C115.748 79.4477 115.382 80.1793 114.775 80.8657C114.17 81.5457 113.332 82.1393 112.263 82.6467C111.202 83.1499 110.201 83.4257 109.259 83.4739C108.322 83.5202 107.482 83.3291 106.739 82.9007C105.999 82.466 105.393 81.781 104.923 80.8457L107.612 79.5703C107.851 79.9967 108.152 80.3048 108.514 80.4944C108.879 80.6778 109.285 80.755 109.733 80.7262C110.182 80.691 110.647 80.5598 111.126 80.3325C111.596 80.1093 111.972 79.8471 112.254 79.5458C112.54 79.2425 112.721 78.9233 112.798 78.5881C112.875 78.253 112.838 77.9271 112.688 77.6105C112.548 77.3154 112.343 77.1088 112.072 76.991C111.805 76.8711 111.472 76.8197 111.071 76.8368C110.675 76.8519 110.21 76.9153 109.676 77.0271L108.074 77.3465C106.839 77.6026 105.764 77.5962 104.85 77.3273C103.937 77.0585 103.252 76.4375 102.795 75.4644C102.414 74.6707 102.296 73.8751 102.441 73.0775C102.591 72.2779 102.964 71.5327 103.558 70.8419C104.153 70.151 104.929 69.5784 105.888 69.1238C106.863 68.6611 107.793 68.4241 108.679 68.4129C109.569 68.3995 110.358 68.5938 111.046 68.9957C111.735 69.3975 112.271 69.9868 112.655 70.7636L109.992 72.0268ZM115.69 64.6943L121.924 77.8361L119.145 79.1541L112.911 66.0123L115.69 64.6943ZM124.068 76.8187L123.286 75.1696L125.479 62.8568L118.908 65.9738L117.822 63.6829L127.883 58.9101L128.666 60.5593L126.466 72.8751L133.043 69.7551L134.13 72.0459L124.068 76.8187ZM136.262 71.0346L130.028 57.8927L138.884 53.6921L139.97 55.983L133.893 58.8655L135.379 61.997L141 59.3306L142.087 61.6214L136.466 64.2878L137.954 67.4257L144.057 64.531L145.143 66.8218L136.262 71.0346Z" fill="#332B02"/>
</g>
<defs>
<filter id="filter0_d_244_3117" x="-1" y="-1" width="206.942" height="167.523" filterUnits="userSpaceOnUse" color-interpolation-filters="sRGB">
<feFlood flood-opacity="0" result="BackgroundImageFix"/>
<feColorMatrix in="SourceAlpha" type="matrix" values="0 0 0 0 0 0 0 0 0 0 0 0 0 0 0 0 0 0 127 0" result="hardAlpha"/>
<feOffset dy="4"/>
<feGaussianBlur stdDeviation="20"/>
<feComposite in2="hardAlpha" operator="out"/>
<feColorMatrix type="matrix" values="0 0 0 0 0 0 0 0 0 0 0 0 0 0 0 0 0 0 0.15 0"/>
<feBlend mode="normal" in2="BackgroundImageFix" result="effect1_dropShadow_244_3117"/>
<feBlend mode="normal" in="SourceGraphic" in2="effect1_dropShadow_244_3117" result="shape"/>
</filter>
</defs>
</svg>
