<svg width="93" height="92" viewBox="0 0 93 92" fill="none" xmlns="http://www.w3.org/2000/svg">
<rect x="0.5" width="92" height="92" rx="5" fill="#FBE7DF"/>
<path opacity="0.4" d="M71.5 35.525V50.75L67.425 47.25C65.475 45.575 62.325 45.575 60.375 47.25L49.975 56.175C48.025 57.85 44.875 57.85 42.925 56.175L42.075 55.475C40.3 53.925 37.475 53.775 35.475 55.125L23.175 63.375L22.9 63.575C21.975 61.575 21.5 59.2 21.5 56.475V35.525C21.5 26.425 26.925 21 36.025 21H56.975C66.075 21 71.5 26.425 71.5 35.525Z" fill="#E98862"/>
<path d="M38.9998 41.9508C42.2859 41.9508 44.9498 39.2869 44.9498 36.0008C44.9498 32.7147 42.2859 30.0508 38.9998 30.0508C35.7137 30.0508 33.0498 32.7147 33.0498 36.0008C33.0498 39.2869 35.7137 41.9508 38.9998 41.9508Z" fill="#E98862"/>
<path d="M71.4999 50.7504V56.4754C71.4999 65.5754 66.0749 71.0004 56.9749 71.0004H36.0249C29.6499 71.0004 25.0499 68.3254 22.8999 63.5754L23.1749 63.3754L35.4749 55.1254C37.4749 53.7754 40.2999 53.9254 42.0749 55.4754L42.9249 56.1754C44.8749 57.8504 48.0249 57.8504 49.9749 56.1754L60.3749 47.2504C62.3249 45.5754 65.4749 45.5754 67.4249 47.2504L71.4999 50.7504Z" fill="#E98862"/>
</svg>
