<svg width="223" height="182" viewBox="0 0 223 182" fill="none" xmlns="http://www.w3.org/2000/svg">
<g filter="url(#filter0_d_244_3109)">
<rect x="57.9365" y="35" width="145" height="39" rx="5" transform="rotate(29.0494 57.9365 35)" fill="#FFF1AD" shape-rendering="crispEdges"/>
<path d="M66.9813 54.2697L70.2968 56.1113L69.0533 66.5996L69.2023 66.6824L77.4493 60.0841L80.7648 61.9256L73.7021 74.6413L71.0944 73.1929L75.6914 64.9165L75.5858 64.8579L67.7327 71.2444L65.9569 70.2581L67.246 60.185L67.1405 60.1264L62.5262 68.4338L59.9185 66.9854L66.9813 54.2697ZM85.6683 64.6492L78.6055 77.3648L75.9171 75.8716L82.9798 63.1559L85.6683 64.6492ZM87.8801 65.8777L91.1957 67.7193L89.9521 78.2076L90.1012 78.2904L98.3482 71.6921L101.664 73.5336L94.601 86.2493L91.9933 84.8009L96.5903 76.5245L96.4847 76.4659L88.6315 82.8524L86.8558 81.8661L88.1449 71.793L88.0393 71.7344L83.4251 80.0418L80.8174 78.5934L87.8801 65.8777ZM96.816 87.4796L103.879 74.7639L112.447 79.523L111.216 81.7396L105.336 78.4737L103.653 81.5036L109.092 84.5246L107.861 86.7412L102.422 83.7202L100.736 86.7563L106.64 90.0359L105.409 92.2525L96.816 87.4796ZM116.915 84.9054L118.147 82.6888L128.59 88.4894L127.359 90.7059L123.466 88.5437L117.634 99.0428L114.977 97.5668L120.808 87.0677L116.915 84.9054ZM129.565 89.0308L132.576 90.7034L132.434 97.7901L132.558 97.859L138.499 93.9934L141.51 95.6659L132.306 101.31L129.81 105.805L127.14 104.323L129.637 99.8274L129.565 89.0308ZM135.916 109.197L142.979 96.4815L147.995 99.268C148.96 99.8037 149.679 100.444 150.153 101.19C150.63 101.931 150.866 102.725 150.861 103.573C150.862 104.419 150.628 105.264 150.159 106.108C149.69 106.953 149.094 107.596 148.372 108.04C147.649 108.483 146.842 108.693 145.95 108.669C145.063 108.648 144.131 108.366 143.154 107.823L139.957 106.047L141.153 103.893L143.916 105.427C144.434 105.715 144.91 105.862 145.344 105.871C145.784 105.877 146.176 105.767 146.518 105.54C146.867 105.312 147.158 104.988 147.39 104.57C147.625 104.148 147.745 103.732 147.75 103.324C147.761 102.913 147.645 102.526 147.402 102.164C147.162 101.797 146.781 101.469 146.259 101.18L144.446 100.173L138.604 110.69L135.916 109.197ZM147.236 115.485L154.299 102.769L162.867 107.528L161.636 109.745L155.756 106.479L154.073 109.509L159.512 112.53L158.281 114.746L152.842 111.725L151.156 114.762L157.06 118.041L155.829 120.258L147.236 115.485Z" fill="#332B02"/>
</g>
<defs>
<filter id="filter0_d_244_3109" x="-1" y="-1" width="225.695" height="184.5" filterUnits="userSpaceOnUse" color-interpolation-filters="sRGB">
<feFlood flood-opacity="0" result="BackgroundImageFix"/>
<feColorMatrix in="SourceAlpha" type="matrix" values="0 0 0 0 0 0 0 0 0 0 0 0 0 0 0 0 0 0 127 0" result="hardAlpha"/>
<feOffset dy="4"/>
<feGaussianBlur stdDeviation="20"/>
<feComposite in2="hardAlpha" operator="out"/>
<feColorMatrix type="matrix" values="0 0 0 0 0 0 0 0 0 0 0 0 0 0 0 0 0 0 0.15 0"/>
<feBlend mode="normal" in2="BackgroundImageFix" result="effect1_dropShadow_244_3109"/>
<feBlend mode="normal" in="SourceGraphic" in2="effect1_dropShadow_244_3109" result="shape"/>
</filter>
</defs>
</svg>
