<svg width="251" height="124" viewBox="0 0 251 124" fill="none" xmlns="http://www.w3.org/2000/svg">
<g filter="url(#filter0_d_244_3115)">
<rect x="41.0986" y="36" width="170" height="39" rx="5" transform="rotate(1.61444 41.0986 36)" fill="#FFF1AD" shape-rendering="crispEdges"/>
<path d="M58.0054 48.9357L61.7965 49.0425L65.5253 58.9242L65.6956 58.929L69.9751 49.273L73.7662 49.3799L73.3564 63.9196L70.3746 63.8355L70.6413 54.3719L70.5206 54.3685L66.4932 63.6551L64.4628 63.5978L60.9658 54.0637L60.8451 54.0603L60.5774 63.5594L57.5956 63.4753L58.0054 48.9357ZM89.4552 57.0977C89.4105 58.6832 89.0719 60.0236 88.4395 61.119C87.8118 62.2144 86.9738 63.041 85.9254 63.5988C84.882 64.152 83.7189 64.4106 82.4363 64.3744C81.1442 64.338 79.9929 64.0119 78.9824 63.396C77.9719 62.7802 77.1841 61.9078 76.6191 60.7787C76.0541 59.6496 75.7939 58.2947 75.8384 56.7139C75.8831 55.1284 76.2193 53.7879 76.847 52.6924C77.4747 51.597 78.3103 50.7727 79.3538 50.2194C80.3974 49.6615 81.5652 49.4007 82.8573 49.4372C84.1399 49.4733 85.2865 49.7993 86.297 50.4151C87.3124 51.0264 88.1026 51.8965 88.6676 53.0256C89.2373 54.1548 89.4999 55.5121 89.4552 57.0977ZM86.3385 57.0098C86.3675 55.9828 86.2381 55.1123 85.9503 54.3984C85.6673 53.6847 85.254 53.1378 84.7105 52.7577C84.167 52.3777 83.5237 52.1772 82.7807 52.1563C82.0376 52.1353 81.384 52.2993 80.82 52.6481C80.256 52.9969 79.8102 53.5196 79.4827 54.2161C79.1599 54.9128 78.984 55.7747 78.9551 56.8017C78.9261 57.8288 79.0532 58.6992 79.3362 59.4129C79.624 60.1268 80.0396 60.6738 80.5831 61.0538C81.1266 61.4339 81.7699 61.6344 82.5129 61.6553C83.256 61.6763 83.9096 61.5123 84.4736 61.1635C85.0376 60.8147 85.481 60.2919 85.8038 59.5952C86.1313 58.8987 86.3096 58.0369 86.3385 57.0098ZM96.6816 64.577L91.5274 64.4317L91.9372 49.892L97.134 50.0385C98.5965 50.0797 99.8473 50.4063 100.886 51.0182C101.926 51.6253 102.714 52.4789 103.251 53.5787C103.793 54.6787 104.043 55.9836 104.001 57.4934C103.958 59.008 103.635 60.3015 103.031 61.3739C102.433 62.4465 101.593 63.2588 100.512 63.811C99.435 64.3633 98.1583 64.6186 96.6816 64.577ZM94.6757 61.8844L96.6281 61.9395C97.5368 61.9651 98.3057 61.8257 98.9348 61.5213C99.5688 61.2124 100.052 60.7215 100.383 60.0488C100.72 59.3714 100.903 58.4908 100.934 57.407C100.964 56.3326 100.83 55.4502 100.532 54.7597C100.239 54.0693 99.787 53.5545 99.176 53.2152C98.5651 52.8759 97.8052 52.6934 96.8965 52.6678L94.9371 52.6126L94.6757 61.8844ZM109.556 50.3886L109.146 64.9283L106.072 64.8416L106.482 50.302L109.556 50.3886ZM111.676 64.9996L112.085 50.4599L121.712 50.7312L121.641 53.2657L115.088 53.081L114.99 56.5456L120.904 56.7123L120.833 59.2468L114.919 59.0801L114.75 65.0862L111.676 64.9996ZM122.928 50.7655L126.371 50.8625L129.51 57.2177L129.652 57.2217L133.144 51.0534L136.587 51.1505L131.019 60.4007L130.874 65.5407L127.822 65.4546L127.966 60.3146L122.928 50.7655ZM147.638 66.0132L142.484 65.8679L142.894 51.3282L148.09 51.4747C149.553 51.5159 150.804 51.8425 151.843 52.4544C152.882 53.0615 153.67 53.915 154.208 55.0149C154.75 56.1149 154.999 57.4198 154.957 58.9296C154.914 60.4442 154.591 61.7377 153.988 62.8101C153.389 63.8827 152.549 64.695 151.468 65.2472C150.391 65.7995 149.115 66.0548 147.638 66.0132ZM145.632 63.3206L147.584 63.3757C148.493 63.4013 149.262 63.2619 149.891 62.9575C150.525 62.6486 151.008 62.1577 151.339 61.485C151.676 60.8076 151.859 59.927 151.89 58.8432C151.92 57.7688 151.786 56.8864 151.489 56.1959C151.195 55.5055 150.743 54.9907 150.132 54.6514C149.521 54.3121 148.762 54.1296 147.853 54.104L145.893 54.0488L145.632 63.3206ZM158.715 66.3254L155.421 66.2325L160.85 51.8343L164.811 51.946L169.414 66.6269L166.12 66.5341L162.794 55.2143L162.68 55.2111L158.715 66.3254ZM158.67 60.6045L166.451 60.8238L166.383 63.2234L158.602 63.0041L158.67 60.6045ZM169.172 54.6054L169.243 52.0709L181.184 52.4074L181.113 54.9419L176.662 54.8165L176.323 66.8217L173.285 66.736L173.623 54.7308L169.172 54.6054ZM182.741 67.0025L183.151 52.4629L192.948 52.739L192.877 55.2735L186.154 55.084L186.056 58.5485L192.275 58.7238L192.204 61.2583L185.985 61.083L185.887 64.5547L192.638 64.745L192.567 67.2795L182.741 67.0025Z" fill="#332B02"/>
</g>
<defs>
<filter id="filter0_d_244_3115" x="0" y="0" width="251.031" height="123.773" filterUnits="userSpaceOnUse" color-interpolation-filters="sRGB">
<feFlood flood-opacity="0" result="BackgroundImageFix"/>
<feColorMatrix in="SourceAlpha" type="matrix" values="0 0 0 0 0 0 0 0 0 0 0 0 0 0 0 0 0 0 127 0" result="hardAlpha"/>
<feOffset dy="4"/>
<feGaussianBlur stdDeviation="20"/>
<feComposite in2="hardAlpha" operator="out"/>
<feColorMatrix type="matrix" values="0 0 0 0 0 0 0 0 0 0 0 0 0 0 0 0 0 0 0.15 0"/>
<feBlend mode="normal" in2="BackgroundImageFix" result="effect1_dropShadow_244_3115"/>
<feBlend mode="normal" in="SourceGraphic" in2="effect1_dropShadow_244_3115" result="shape"/>
</filter>
</defs>
</svg>
