<svg width="92" height="92" viewBox="0 0 92 92" fill="none" xmlns="http://www.w3.org/2000/svg">
<rect width="92" height="92" rx="5" fill="#F6F0CE"/>
<path opacity="0.4" d="M71 35.525V50.75L66.925 47.25C64.975 45.575 61.825 45.575 59.875 47.25L49.475 56.175C47.525 57.85 44.375 57.85 42.425 56.175L41.575 55.475C39.8 53.925 36.975 53.775 34.975 55.125L22.675 63.375L22.4 63.575C21.475 61.575 21 59.2 21 56.475V35.525C21 26.425 26.425 21 35.525 21H56.475C65.575 21 71 26.425 71 35.525Z" fill="#D4B208"/>
<path d="M38.4998 41.9508C41.7859 41.9508 44.4498 39.2869 44.4498 36.0008C44.4498 32.7147 41.7859 30.0508 38.4998 30.0508C35.2137 30.0508 32.5498 32.7147 32.5498 36.0008C32.5498 39.2869 35.2137 41.9508 38.4998 41.9508Z" fill="#D4B208"/>
<path d="M70.9999 50.7504V56.4754C70.9999 65.5754 65.5749 71.0004 56.4749 71.0004H35.5249C29.1499 71.0004 24.5499 68.3254 22.3999 63.5754L22.6749 63.3754L34.9749 55.1254C36.9749 53.7754 39.7999 53.9254 41.5749 55.4754L42.4249 56.1754C44.3749 57.8504 47.5249 57.8504 49.4749 56.1754L59.8749 47.2504C61.8249 45.5754 64.9749 45.5754 66.9249 47.2504L70.9999 50.7504Z" fill="#D4B208"/>
</svg>
