<svg width="252" height="140" viewBox="0 0 252 140" fill="none" xmlns="http://www.w3.org/2000/svg">
<rect x="46.5" y="24" width="92" height="92" rx="5" fill="#CEF2E8"/>
<path opacity="0.4" d="M117.5 59.525V74.75L113.425 71.25C111.475 69.575 108.325 69.575 106.375 71.25L95.975 80.175C94.025 81.85 90.875 81.85 88.925 80.175L88.075 79.475C86.3 77.925 83.475 77.775 81.475 79.125L69.175 87.375L68.9 87.575C67.975 85.575 67.5 83.2 67.5 80.475V59.525C67.5 50.425 72.925 45 82.025 45H102.975C112.075 45 117.5 50.425 117.5 59.525Z" fill="#0CBC8B"/>
<path d="M84.9998 65.9508C88.2859 65.9508 90.9498 63.2869 90.9498 60.0008C90.9498 56.7147 88.2859 54.0508 84.9998 54.0508C81.7137 54.0508 79.0498 56.7147 79.0498 60.0008C79.0498 63.2869 81.7137 65.9508 84.9998 65.9508Z" fill="#0CBC8B"/>
<path d="M117.5 74.7504V80.4754C117.5 89.5754 112.075 95.0004 102.975 95.0004H82.0249C75.6499 95.0004 71.0499 92.3254 68.8999 87.5754L69.1749 87.3754L81.4749 79.1254C83.4749 77.7754 86.2999 77.9254 88.0749 79.4754L88.9249 80.1754C90.8749 81.8504 94.0249 81.8504 95.9749 80.1754L106.375 71.2504C108.325 69.5754 111.475 69.5754 113.425 71.2504L117.5 74.7504Z" fill="#0CBC8B"/>
<path d="M174.44 49.48C174.44 50.2933 174.253 51.04 173.88 51.72C173.507 52.3867 172.933 52.9267 172.16 53.34C171.387 53.7533 170.427 53.96 169.28 53.96H167.16V59H163.74V44.96H169.28C170.4 44.96 171.347 45.1533 172.12 45.54C172.893 45.9267 173.473 46.46 173.86 47.14C174.247 47.82 174.44 48.6 174.44 49.48ZM169.02 51.24C169.673 51.24 170.16 51.0867 170.48 50.78C170.8 50.4733 170.96 50.04 170.96 49.48C170.96 48.92 170.8 48.4867 170.48 48.18C170.16 47.8733 169.673 47.72 169.02 47.72H167.16V51.24H169.02ZM188.78 59H185.36L179.64 50.34V59H176.22V44.96H179.64L185.36 53.66V44.96H188.78V59ZM200.58 49.4C200.326 48.9333 199.96 48.58 199.48 48.34C199.013 48.0867 198.46 47.96 197.82 47.96C196.713 47.96 195.826 48.3267 195.16 49.06C194.493 49.78 194.16 50.7467 194.16 51.96C194.16 53.2533 194.506 54.2667 195.2 55C195.906 55.72 196.873 56.08 198.1 56.08C198.94 56.08 199.646 55.8667 200.22 55.44C200.806 55.0133 201.233 54.4 201.5 53.6H197.16V51.08H204.6V54.26C204.346 55.1133 203.913 55.9067 203.3 56.64C202.7 57.3733 201.933 57.9667 201 58.42C200.066 58.8733 199.013 59.1 197.84 59.1C196.453 59.1 195.213 58.8 194.12 58.2C193.04 57.5867 192.193 56.74 191.58 55.66C190.98 54.58 190.68 53.3467 190.68 51.96C190.68 50.5733 190.98 49.34 191.58 48.26C192.193 47.1667 193.04 46.32 194.12 45.72C195.2 45.1067 196.433 44.8 197.82 44.8C199.5 44.8 200.913 45.2067 202.06 46.02C203.22 46.8333 203.986 47.96 204.36 49.4H200.58Z" fill="white"/>
<path d="M163.364 80.728V75.64H172.228V99H166.532V80.728H163.364ZM175.779 94.616C176.505 94.04 176.835 93.7733 176.771 93.816C178.862 92.088 180.505 90.6693 181.699 89.56C182.915 88.4507 183.939 87.288 184.771 86.072C185.603 84.856 186.019 83.672 186.019 82.52C186.019 81.6453 185.817 80.9627 185.411 80.472C185.006 79.9813 184.398 79.736 183.587 79.736C182.777 79.736 182.137 80.0453 181.667 80.664C181.219 81.2613 180.995 82.1147 180.995 83.224H175.715C175.758 81.4107 176.142 79.896 176.867 78.68C177.614 77.464 178.585 76.568 179.779 75.992C180.995 75.416 182.339 75.128 183.811 75.128C186.35 75.128 188.259 75.7787 189.539 77.08C190.841 78.3813 191.491 80.0773 191.491 82.168C191.491 84.4507 190.713 86.5733 189.155 88.536C187.598 90.4773 185.614 92.376 183.203 94.232H191.843V98.68H175.779V94.616Z" fill="white"/>
<rect x="0.5" y="0.5" width="251" height="139" rx="4.5" stroke="#949699"/>
</svg>
