<svg width="40" height="40" viewBox="0 0 40 40" fill="none" xmlns="http://www.w3.org/2000/svg">
<path opacity="0.4" d="M18.2665 3.51631L9.09984 6.94965C7.34984 7.61631 5.9165 9.68298 5.9165 11.5663V25.0663C5.9165 26.4163 6.79984 28.1996 7.88317 28.9996L17.0498 35.8496C18.6665 37.0663 21.3165 37.0663 22.9332 35.8496L32.0998 28.9996C33.1832 28.183 34.0665 26.4163 34.0665 25.0663V11.5663C34.0665 9.69965 32.6332 7.61631 30.8832 6.96631L21.7165 3.53298C20.7832 3.16631 19.2165 3.16631 18.2665 3.51631Z" fill="white"/>
<path d="M24.1668 17.4997C24.1668 15.1997 22.3002 13.333 20.0002 13.333C17.7002 13.333 15.8335 15.1997 15.8335 17.4997C15.8335 19.3663 17.0668 20.9163 18.7502 21.4497V25.833C18.7502 26.5163 19.3168 27.083 20.0002 27.083C20.6835 27.083 21.2502 26.5163 21.2502 25.833V21.4497C22.9335 20.9163 24.1668 19.3663 24.1668 17.4997Z" fill="white"/>
</svg>
