<svg width="31" height="31" viewBox="0 0 31 31" fill="none" xmlns="http://www.w3.org/2000/svg">
<path d="M28.6498 13.0496C27.9748 12.7246 27.3248 12.3996 26.7248 12.0246C26.2248 11.7246 25.7248 11.3996 25.2498 11.0496C24.8498 10.7996 24.3998 10.4246 23.9498 10.0496C23.8998 10.0246 23.7498 9.89961 23.5498 9.69961C22.7748 9.07461 21.9498 8.22461 21.1748 7.29961C21.1248 7.24961 20.9748 7.09961 20.8498 6.87461C20.5998 6.59961 20.2248 6.12461 19.8998 5.59961C19.6248 5.24961 19.2998 4.74961 18.9998 4.22461C18.6248 3.59961 18.2998 2.97461 17.9998 2.32461C17.6748 1.62461 17.4248 0.974609 17.1998 0.349609L3.74976 13.7996C2.87476 14.6746 2.02476 16.3246 1.84976 17.5496L0.774763 24.9996C0.549763 26.5746 0.974762 28.0496 1.94976 29.0246C2.77476 29.8496 3.89976 30.2746 5.14976 30.2746C5.42476 30.2746 5.69976 30.2496 5.97476 30.2246L13.3998 29.1746C14.6248 28.9996 16.2748 28.1746 17.1498 27.2746L30.5998 13.8246C29.9748 13.6246 29.3498 13.3496 28.6498 13.0496Z" fill="#FFD60A"/>
</svg>
