<svg width="40" height="40" viewBox="0 0 40 40" fill="none" xmlns="http://www.w3.org/2000/svg">
<path d="M36.6668 18.4501V27.7501C36.6668 32.6667 32.6668 36.6667 27.7502 36.6667H12.2502C7.3335 36.6667 3.3335 32.6667 3.3335 27.7501V15.7334H36.2335C36.4835 16.4834 36.6168 17.2501 36.6502 18.0667C36.6668 18.1834 36.6668 18.3334 36.6668 18.4501Z" fill="#22262A"/>
<path opacity="0.4" d="M36.2335 15.733H3.3335V10.6997C3.3335 6.63301 6.6335 3.33301 10.7002 3.33301H14.5835C17.3002 3.33301 18.1502 4.21634 19.2335 5.66634L21.5668 8.76634C22.0835 9.44968 22.1502 9.54967 23.1168 9.54967H27.7668C31.7168 9.53301 35.0835 12.133 36.2335 15.733Z" fill="#22262A"/>
</svg>
