<svg width="61" height="60" viewBox="0 0 61 60" fill="none" xmlns="http://www.w3.org/2000/svg">
<path opacity="0.4" d="M55.5 19.525V34.75L51.425 31.25C49.475 29.575 46.325 29.575 44.375 31.25L33.975 40.175C32.025 41.85 28.875 41.85 26.925 40.175L26.075 39.475C24.3 37.925 21.475 37.775 19.475 39.125L7.175 47.375L6.9 47.575C5.975 45.575 5.5 43.2 5.5 40.475V19.525C5.5 10.425 10.925 5 20.025 5H40.975C50.075 5 55.5 10.425 55.5 19.525Z" fill="#292D32"/>
<path d="M23 25.9498C26.2861 25.9498 28.9501 23.2859 28.9501 19.9998C28.9501 16.7137 26.2861 14.0498 23 14.0498C19.714 14.0498 17.05 16.7137 17.05 19.9998C17.05 23.2859 19.714 25.9498 23 25.9498Z" fill="#292D32"/>
<path d="M55.4999 34.7504V40.4754C55.4999 49.5754 50.0749 55.0004 40.9749 55.0004H20.0249C13.6499 55.0004 9.0499 52.3254 6.8999 47.5754L7.1749 47.3754L19.4749 39.1254C21.4749 37.7754 24.2999 37.9254 26.0749 39.4754L26.9249 40.1754C28.8749 41.8504 32.0249 41.8504 33.9749 40.1754L44.3749 31.2504C46.3249 29.5754 49.4749 29.5754 51.4249 31.2504L55.4999 34.7504Z" fill="#292D32"/>
</svg>
