<svg width="81" height="80" viewBox="0 0 81 80" fill="none" xmlns="http://www.w3.org/2000/svg">
<path opacity="0.4" d="M68.8333 33.966H59.2C51.3 33.966 44.8667 27.5327 44.8667 19.6327V9.99935C44.8667 8.16602 43.3667 6.66602 41.5333 6.66602H27.4C17.1333 6.66602 8.83334 13.3327 8.83334 25.2327V54.766C8.83334 66.666 17.1333 73.3327 27.4 73.3327H53.6C63.8667 73.3327 72.1667 66.666 72.1667 54.766V37.2993C72.1667 35.466 70.6667 33.966 68.8333 33.966Z" fill="#2A5780"/>
<path d="M53.1667 7.36632C51.8 5.99965 49.4333 6.93298 49.4333 8.83298V20.4663C49.4333 25.333 53.5667 29.3663 58.6 29.3663C61.7667 29.3997 66.1667 29.3996 69.9333 29.3996C71.8333 29.3996 72.8333 27.1663 71.5 25.833C66.7 20.9997 58.1 12.2997 53.1667 7.36632Z" fill="#2A5780"/>
<path d="M37.1667 59.1668C36.5333 59.1668 35.9 58.9335 35.4 58.4335C34.4333 57.4668 34.4333 55.8668 35.4 54.9001L37.8 52.5001H23.8333C22.4667 52.5001 21.3333 51.3668 21.3333 50.0001C21.3333 48.6335 22.4667 47.5001 23.8333 47.5001H37.8L35.4 45.1001C34.9 44.6001 34.6667 43.9668 34.6667 43.3335C34.6667 42.7001 34.9 42.0668 35.4 41.5668C36.3667 40.6001 37.9667 40.6001 38.9333 41.5668L45.6 48.2335C46.0333 48.6668 46.2667 49.2335 46.3 49.7668C46.3 49.9335 46.3 50.1335 46.3 50.3001C46.2333 50.7668 46.0333 51.2001 45.7 51.6001C45.6667 51.6335 45.6 51.7001 45.5667 51.7335L38.9 58.4001C38.4333 58.9335 37.8 59.1668 37.1667 59.1668Z" fill="#2A5780"/>
</svg>
