<svg width="254" height="82" viewBox="0 0 254 82" fill="none" xmlns="http://www.w3.org/2000/svg">
<path d="M131.972 4.43143C166.744 9.11035 197.646 17.5001 219.497 27.2708C230.425 32.1574 239.064 37.3782 244.79 42.6337C250.529 47.9006 253.258 53.1188 252.599 58.0173C251.939 62.9158 247.929 67.2271 241.002 70.7897C234.09 74.3445 224.378 77.0961 212.547 78.9202C188.891 82.5673 156.87 82.49 122.098 77.8111C87.3269 73.1321 56.4244 64.7424 34.5737 54.9717C23.6453 50.0851 15.0068 44.8643 9.28036 39.6088C3.54149 34.3419 0.813078 29.1237 1.47223 24.2252C2.13138 19.3267 6.1421 15.0154 13.0691 11.4528C19.9811 7.89795 29.6924 5.14636 41.5237 3.32229C65.18 -0.324848 97.201 -0.247489 131.972 4.43143Z" stroke="#22262A" stroke-width="0.9519"/>
</svg>
