<svg width="40" height="40" viewBox="0 0 40 40" fill="none" xmlns="http://www.w3.org/2000/svg">
<path opacity="0.4" d="M20 36.6673C29.2047 36.6673 36.6666 29.2054 36.6666 20.0007C36.6666 10.7959 29.2047 3.33398 20 3.33398C10.7952 3.33398 3.33331 10.7959 3.33331 20.0007C3.33331 29.2054 10.7952 36.6673 20 36.6673Z" fill="#003566"/>
<path d="M26.6666 18.7507H21.25V13.334C21.25 12.6507 20.6833 12.084 20 12.084C19.3166 12.084 18.75 12.6507 18.75 13.334V18.7507H13.3333C12.65 18.7507 12.0833 19.3173 12.0833 20.0007C12.0833 20.684 12.65 21.2507 13.3333 21.2507H18.75V26.6673C18.75 27.3507 19.3166 27.9173 20 27.9173C20.6833 27.9173 21.25 27.3507 21.25 26.6673V21.2507H26.6666C27.35 21.2507 27.9166 20.684 27.9166 20.0007C27.9166 19.3173 27.35 18.7507 26.6666 18.7507Z" fill="#003566"/>
</svg>
