<svg width="40" height="40" viewBox="0 0 40 40" fill="none" xmlns="http://www.w3.org/2000/svg">
<path d="M36.1164 11.583C35.0498 7.96634 32.0331 4.94968 28.4164 3.88301C25.6664 3.08301 23.7664 3.14968 22.4498 4.13301C20.8664 5.31634 20.6831 7.44968 20.6831 8.96634V13.1163C20.6831 17.2163 22.5498 19.2997 26.2164 19.2997H30.9998C32.4998 19.2997 34.6498 19.1163 35.8331 17.533C36.8498 16.233 36.9331 14.333 36.1164 11.583Z" fill="white"/>
<path opacity="0.4" d="M31.5165 22.2659C31.0832 21.7659 30.4498 21.4826 29.7998 21.4826H23.8332C20.8998 21.4826 18.5165 19.0993 18.5165 16.1659V10.1993C18.5165 9.54927 18.2332 8.91594 17.7332 8.48261C17.2498 8.04927 16.5832 7.84927 15.9498 7.93261C12.0332 8.43261 8.43316 10.5826 6.08316 13.8159C3.7165 17.0659 2.84983 21.0326 3.59983 24.9993C4.68316 30.7326 9.2665 35.3159 15.0165 36.3993C15.9332 36.5826 16.8498 36.6659 17.7665 36.6659C20.7832 36.6659 23.6998 35.7326 26.1832 33.9159C29.4165 31.5659 31.5665 27.9659 32.0665 24.0493C32.1498 23.3993 31.9498 22.7493 31.5165 22.2659Z" fill="white"/>
</svg>
