<svg width="120" height="120" viewBox="0 0 120 120" fill="none" xmlns="http://www.w3.org/2000/svg">
<path opacity="0.13" d="M54.35 70L63.9999 86.65L54.4 103.3H35L25.45 86.75L35.15 70H54.35Z" fill="#E22CA4"/>
<path d="M52.7 70.4004H35.6C34.7 70.4004 33.9 70.9004 33.45 71.6504L24.9 86.4504C24.45 87.2004 24.45 88.2004 24.9 88.9504L33.45 103.75C33.9 104.5 34.7 105 35.6 105H52.7C53.6 105 54.4 104.5 54.85 103.75L63.3999 88.9504C63.8499 88.2004 63.8499 87.2004 63.3999 86.4504L54.85 71.6504C54.4 70.8504 53.6 70.4004 52.7 70.4004Z" fill="#E22CA4"/>
<path d="M111.2 58.6992C111.65 59.4992 111.65 60.4992 111.2 61.2992L86.55 103.949C86.2 104.599 85.5001 104.999 84.7501 104.999C83.1501 104.999 82.15 103.249 82.95 101.899L99.4 73.3992C99.85 72.5992 99.85 71.5992 99.4 70.7992L77.4001 32.6992C76.9501 31.8992 76.1 31.3992 75.15 31.3992H31.1C30.15 31.3992 29.35 31.8992 28.85 32.6992L12.5 61.0992C11.65 62.5992 9.50002 62.5992 8.60002 61.0992C8.20002 60.3992 8.20002 59.5492 8.60002 58.8492L33.2001 16.2492C33.6001 15.4492 34.5 14.9492 35.45 14.9492H84.4C85.35 14.9492 86.1499 15.4492 86.6499 16.2492L111.2 58.6992Z" fill="#E22CA4"/>
<path d="M90.45 73.4L72.95 103.7C72.5 104.5 71.6501 105 70.7001 105H67.7C65.7 105 64.45 102.85 65.45 101.1L72.4499 89C72.8999 88.2 72.8999 87.2 72.4499 86.4L59.4501 63.9C58.9501 63.1 58.05 62.6 57.1 62.6H31.1C30.15 62.6 29.3499 63.1 28.8499 63.9L21.85 76C20.85 77.75 18.35 77.75 17.35 76L15.85 73.45C15.4 72.65 15.4 71.65 15.85 70.85L33.3 40.55C33.75 39.75 34.5999 39.25 35.5499 39.25H70.5C71.45 39.25 72.2499 39.75 72.7499 40.55L90.2499 70.85C90.8499 71.6 90.85 72.65 90.45 73.4Z" fill="#E22CA4"/>
</svg>
