<svg width="250" height="75" viewBox="0 0 250 75" fill="none" xmlns="http://www.w3.org/2000/svg">
<path d="M124.242 1.10896C158.559 0.0978213 189.731 3.28487 212.383 9.24452C223.712 12.2252 232.883 15.8925 239.247 20.0564C245.626 24.2293 249.09 28.8339 249.233 33.6685C249.375 38.503 246.188 43.3035 240.066 47.8448C233.958 52.3762 225.018 56.5772 213.885 60.2196C191.623 67.5026 160.693 72.5194 126.376 73.5306C92.0582 74.5417 60.8864 71.3547 38.2348 65.395C26.906 62.4144 17.735 58.747 11.3701 54.5831C4.99148 50.4102 1.52735 45.8056 1.3849 40.9711C1.24246 36.1365 4.42948 31.336 10.5513 26.7947C16.66 22.2633 25.5992 18.0624 36.7329 14.4199C58.9943 7.13691 89.9243 2.12009 124.242 1.10896Z" stroke="#22262A" stroke-width="0.931485"/>
</svg>
