<svg width="120" height="120" viewBox="0 0 120 120" fill="none" xmlns="http://www.w3.org/2000/svg">
<path d="M102.45 33.5504L62.45 11.3504C60.95 10.5004 59.1001 10.5004 57.6001 11.3504L17.6001 33.5504C16.0001 34.4504 15.05 36.1004 15.05 37.9004V82.0003C15.05 83.8003 16.0501 85.5004 17.6001 86.3504L57.6999 108.65C59.1499 109.45 60.8999 109.5 62.3499 108.75L82.5 98.7004C84.05 97.9004 85.8999 98.0003 87.3999 98.9503L97.3499 105.2C100.7 107.3 105 104.9 105 100.95V87.9004C105 86.1004 104 84.4004 102.45 83.5504L87.45 75.2504C85.95 74.4004 84.1001 74.4004 82.6001 75.2504L62.45 86.4503C60.95 87.3003 59.1001 87.3003 57.6001 86.4503L37.6001 75.3504C36.0001 74.4504 35.05 72.8004 35.05 71.0004V49.1004C35.05 47.3004 36.0501 45.6004 37.6001 44.7504L57.6001 33.6503C59.1001 32.8003 60.95 32.8003 62.45 33.6503L82.45 44.7504C84.0499 45.6504 85 47.3004 85 49.1004V64.4004C85 68.4504 89.55 70.8004 92.85 68.5004L102.85 61.5504C104.2 60.6004 105 59.1004 105 57.4504V38.0004C105 36.1504 104 34.4504 102.45 33.5504Z" fill="#2CB6E2"/>
<path d="M79.2999 52.1V67.85C79.2999 69.6 78.3499 71.2 76.7999 72.05L62.3499 80.1C60.8999 80.9 59.1001 80.9 57.6501 80.1L43.2001 72.05C41.6501 71.2 40.7001 69.6 40.7001 67.85V52.1C40.7001 50.35 41.6501 48.75 43.2001 47.9L57.6501 39.85C59.1001 39.05 60.8999 39.05 62.3499 39.85L76.7999 47.9C78.3499 48.75 79.2999 50.35 79.2999 52.1Z" fill="#2CB6E2"/>
</svg>
