<svg width="25" height="21" viewBox="0 0 25 21" fill="none" xmlns="http://www.w3.org/2000/svg">
<path d="M22.0508 5.76215C22.0658 5.97914 22.0658 6.19612 22.0658 6.41511C22.0658 13.0877 16.996 20.7832 7.72553 20.7832V20.7792C4.98701 20.7832 2.30538 19.9973 0 18.5153C0.398203 18.5633 0.798401 18.5873 1.1996 18.5883C3.46905 18.5903 5.67364 17.8274 7.45906 16.4225C5.30238 16.3815 3.41117 14.9726 2.75049 12.9157C3.50598 13.0617 4.28442 13.0317 5.02594 12.8287C2.67464 12.3527 0.983032 10.2829 0.983032 7.87902C0.983032 7.85702 0.983032 7.83602 0.983032 7.81502C1.68363 8.206 2.46806 8.42298 3.27045 8.44698C1.05589 6.96408 0.373253 4.01226 1.71057 1.70441C4.26945 4.85921 8.04489 6.77709 12.0978 6.98007C11.6916 5.22619 12.2465 3.3883 13.5559 2.15538C15.5858 0.2435 18.7784 0.341493 20.6866 2.37437C21.8153 2.15138 22.8972 1.73641 23.8872 1.14844C23.5109 2.31737 22.7235 3.31031 21.6716 3.94127C22.6706 3.82327 23.6466 3.55529 24.5658 3.14632C23.8892 4.16225 23.0369 5.0472 22.0508 5.76215Z" fill="white"/>
</svg>
