<svg width="81" height="80" viewBox="0 0 81 80" fill="none" xmlns="http://www.w3.org/2000/svg">
<path opacity="0.4" d="M46.8 9.60047L31.1667 7.1338C18.1333 5.10047 12.1 9.50047 10.0333 22.5338L7.56666 38.1671C6.23333 46.7005 7.63332 52.2338 12.4667 55.6005C15 57.4005 18.4667 58.6005 22.9667 59.3005L38.6 61.7671C51.6333 63.8005 57.6667 59.4005 59.7333 46.3671L62.1667 30.7338C62.5667 28.1671 62.7333 25.8671 62.6 23.8338C62.1667 15.5005 57.2667 11.2338 46.8 9.60047ZM27.9667 31.1671C24.0667 31.1671 20.9 28.0005 20.9 24.1338C20.9 20.2338 24.0667 17.0671 27.9667 17.0671C31.8333 17.0671 35 20.2338 35 24.1338C35 28.0005 31.8333 31.1671 27.9667 31.1671Z" fill="#2A5780"/>
<path d="M68.8333 44.9007L63.8333 59.934C59.6667 72.4673 53 75.8007 40.4667 71.634L25.4333 66.634C17.8667 64.134 13.6667 60.6673 12.4667 55.6007C15 57.4007 18.4667 58.6007 22.9667 59.3007L38.6 61.7673C51.6333 63.8007 57.6667 59.4007 59.7333 46.3673L62.1667 30.734C62.5667 28.1673 62.7333 25.8673 62.6 23.834C70.5667 28.0673 72.3 34.4673 68.8333 44.9007Z" fill="#2A5780"/>
<path d="M35 24.1331C35 27.9997 31.8334 31.1664 27.9667 31.1664C24.0667 31.1664 20.9 27.9997 20.9 24.1331C20.9 20.2331 24.0667 17.0664 27.9667 17.0664C31.8334 17.0664 35 20.2331 35 24.1331Z" fill="#2A5780"/>
</svg>
