<svg width="40" height="40" viewBox="0 0 40 40" fill="none" xmlns="http://www.w3.org/2000/svg">
<path d="M16.6665 31.6667C16.6665 33.5 18.1665 35 19.9998 35C21.8332 35 23.3332 33.5 23.3332 31.6667C23.3332 29.8333 21.8332 28.3333 19.9998 28.3333C18.1665 28.3333 16.6665 29.8333 16.6665 31.6667Z" stroke="#22262A" stroke-width="1.5"/>
<path d="M16.6665 8.33366C16.6665 10.167 18.1665 11.667 19.9998 11.667C21.8332 11.667 23.3332 10.167 23.3332 8.33366C23.3332 6.50033 21.8332 5.00033 19.9998 5.00033C18.1665 5.00033 16.6665 6.50033 16.6665 8.33366Z" stroke="#22262A" stroke-width="1.5"/>
<path d="M16.6665 19.9997C16.6665 21.833 18.1665 23.333 19.9998 23.333C21.8332 23.333 23.3332 21.833 23.3332 19.9997C23.3332 18.1663 21.8332 16.6663 19.9998 16.6663C18.1665 16.6663 16.6665 18.1663 16.6665 19.9997Z" stroke="#22262A" stroke-width="1.5"/>
</svg>
