<svg width="93" height="92" viewBox="0 0 93 92" fill="none" xmlns="http://www.w3.org/2000/svg">
<rect x="0.5" width="92" height="92" rx="5" fill="#FBE7DF"/>
<path d="M69.15 45.55L68.75 45C68.05 44.15 67.225 43.475 66.275 42.975C65 42.25 63.55 41.875 62.05 41.875H30.925C29.425 41.875 28 42.25 26.7 42.975C25.725 43.5 24.85 44.225 24.125 45.125C22.7 46.95 22.025 49.2 22.25 51.45L23.175 63.125C23.5 66.65 23.925 71 31.85 71H61.15C69.075 71 69.475 66.65 69.825 63.1L70.75 51.475C70.975 49.375 70.425 47.275 69.15 45.55ZM52.475 59.35H40.5C39.525 59.35 38.75 58.55 38.75 57.6C38.75 56.65 39.525 55.85 40.5 55.85H52.475C53.45 55.85 54.225 56.65 54.225 57.6C54.225 58.575 53.45 59.35 52.475 59.35Z" fill="#E98862"/>
<path opacity="0.4" d="M24.95 44.275C25.5 43.775 26.05 43.325 26.7 42.975C27.975 42.25 29.425 41.875 30.925 41.875H62.075C63.575 41.875 65 42.25 66.3 42.975C66.95 43.325 67.525 43.775 68.05 44.3V42.975V40.55C68.05 31.625 65.325 28.9 56.4 28.9H50.45C49.35 28.9 49.325 28.875 48.675 28.025L45.675 24C44.25 22.15 43.125 21 39.55 21H36.6C27.675 21 24.95 23.725 24.95 32.65V43V44.275Z" fill="#E98862"/>
</svg>
