<svg width="40" height="40" viewBox="0 0 40 40" fill="none" xmlns="http://www.w3.org/2000/svg">
<path d="M36.1167 11.583C35.05 7.96634 32.0333 4.94968 28.4167 3.88301C25.6667 3.08301 23.7667 3.14968 22.45 4.13301C20.8667 5.31634 20.6833 7.44968 20.6833 8.96634V13.1163C20.6833 17.2163 22.55 19.2997 26.2167 19.2997H31C32.5 19.2997 34.65 19.1163 35.8334 17.533C36.85 16.233 36.9334 14.333 36.1167 11.583Z" fill="#003566"/>
<path opacity="0.4" d="M31.5167 22.2659C31.0833 21.7659 30.45 21.4826 29.8 21.4826H23.8333C20.9 21.4826 18.5167 19.0993 18.5167 16.1659V10.1993C18.5167 9.54927 18.2333 8.91594 17.7333 8.48261C17.25 8.04927 16.5833 7.84927 15.95 7.93261C12.0333 8.43261 8.43335 10.5826 6.08335 13.8159C3.71668 17.0659 2.85001 21.0326 3.60001 24.9993C4.68335 30.7326 9.26668 35.3159 15.0167 36.3993C15.9333 36.5826 16.85 36.6659 17.7667 36.6659C20.7833 36.6659 23.7 35.7326 26.1833 33.9159C29.4167 31.5659 31.5667 27.9659 32.0667 24.0493C32.15 23.3993 31.95 22.7493 31.5167 22.2659Z" fill="#003566"/>
</svg>
